<?xml version="1.0" encoding="UTF-8"?>
<svg xmlns="http://www.w3.org/2000/svg" xmlns:xlink="http://www.w3.org/1999/xlink" width="180px" height="180px" viewBox="0 0 180 180" version="1.1">
<g id="surface1">
<path style=" stroke:none;fill-rule:nonzero;fill:rgb(94.509804%,39.607843%,20%);fill-opacity:1;" d="M 180 90 C 180 114.847656 169.925781 137.351562 153.644531 153.644531 C 145.789062 161.488281 136.5 167.898438 126.195312 172.417969 C 124.835938 173.027344 123.453125 173.589844 122.050781 174.113281 C 112.097656 177.917969 101.292969 180 90 180 C 81.253906 180 72.8125 178.757812 64.816406 176.429688 C 60.3125 175.117188 55.949219 173.460938 51.761719 171.484375 C 42.265625 167.035156 33.679688 160.96875 26.355469 153.644531 C 10.074219 137.351562 0 114.847656 0 90 C 0 75.050781 3.640625 60.953125 10.09375 48.550781 C 14.367188 40.328125 19.867188 32.851562 26.355469 26.355469 C 42.644531 10.074219 65.152344 0 90 0 C 124.855469 0 155.089844 19.816406 170.03125 48.800781 C 176.402344 61.140625 180 75.15625 180 90 Z M 180 90 "/>
<path style=" stroke:none;fill-rule:nonzero;fill:rgb(94.117647%,90.588235%,85.098039%);fill-opacity:1;" d="M 122.050781 174.113281 C 112.097656 177.917969 101.292969 180 90 180 C 81.253906 180 72.8125 178.757812 64.816406 176.429688 C 67.039062 170.058594 69.257812 163.675781 71.480469 157.300781 C 74.097656 149.792969 76.726562 141.53125 74 134.058594 C 72.863281 130.9375 70.871094 128.222656 69.515625 125.199219 C 68.164062 122.175781 67.628906 117.511719 69.230469 114.621094 C 66.367188 104.21875 66.730469 92.945312 70.253906 82.753906 C 70.820312 81.132812 71.746094 79.289062 73.445312 79.050781 C 75.332031 78.796875 76.761719 80.664062 77.738281 82.3125 C 80.578125 87.089844 83.425781 91.859375 86.261719 96.636719 C 90.316406 94.890625 95.042969 95.542969 98.902344 97.6875 C 101.636719 92.722656 103.917969 87.558594 106.652344 82.59375 C 107.558594 80.9375 108.777344 79.078125 110.652344 78.964844 C 112.769531 78.839844 114.25 80.980469 115.132812 82.921875 C 119.449219 92.433594 120.136719 103.558594 117.019531 113.535156 C 118.773438 116.628906 119.328125 121.285156 118.128906 124.640625 C 116.9375 128 114.691406 130.882812 112.222656 133.429688 C 114.902344 142.863281 116.472656 152.859375 119.160156 162.289062 C 120.269531 166.179688 121.382812 170.128906 122.050781 174.113281 Z M 122.050781 174.113281 "/>
<path style=" stroke:none;fill-rule:nonzero;fill:rgb(94.117647%,90.588235%,85.098039%);fill-opacity:1;" d="M 16.105469 47.625 C 16.050781 47.777344 16.015625 47.917969 15.980469 48.050781 C 15.964844 47.898438 16 47.75 16.105469 47.625 Z M 16.105469 47.625 "/>
<path style=" stroke:none;fill-rule:nonzero;fill:rgb(94.117647%,90.588235%,85.098039%);fill-opacity:1;" d="M 65.140625 90.175781 C 64.542969 89.367188 64.128906 88.535156 63.527344 87.726562 C 63.871094 90.246094 64.214844 92.757812 64.550781 95.269531 C 64.621094 95.800781 64.691406 96.375 64.453125 96.859375 C 64.144531 97.492188 63.371094 97.800781 62.664062 97.75 C 61.960938 97.695312 61.308594 97.359375 60.691406 97.007812 C 58.109375 95.5 55.816406 93.5 53.972656 91.136719 C 54.398438 97.914062 56.589844 104.367188 58.796875 110.792969 C 61 117.21875 62.746094 124.148438 61.210938 130.769531 C 60.621094 129.429688 60.027344 128.089844 59.4375 126.75 C 60.894531 133.597656 60.574219 140.816406 58.523438 147.515625 C 56.070312 155.519531 51.152344 163.285156 51.761719 171.484375 C 42.265625 167.035156 33.679688 160.96875 26.355469 153.644531 C 10.074219 137.351562 0 114.847656 0 90 C 0 75.050781 3.640625 60.953125 10.09375 48.550781 C 12.042969 48.773438 13.902344 49.398438 15.53125 50.535156 C 15.832031 49.644531 15.777344 48.90625 15.980469 48.050781 C 16.007812 48.410156 16.34375 48.78125 16.722656 48.851562 C 17.269531 48.949219 17.796875 48.65625 18.28125 48.386719 C 20.152344 47.300781 22.011719 46.214844 23.878906 45.132812 C 22.917969 46.339844 21.957031 47.546875 20.988281 48.746094 C 24.988281 48.710938 28.929688 47.1875 31.796875 44.382812 C 31.546875 45.511719 31.292969 46.640625 31.046875 47.769531 C 36.863281 46.429688 42.390625 50.023438 47.316406 53.390625 C 52.511719 56.925781 57.808594 60.558594 61.535156 65.625 C 65.257812 70.6875 67.167969 77.542969 64.824219 83.378906 C 64.023438 85.371094 65.0625 88.027344 65.140625 90.175781 Z M 65.140625 90.175781 "/>
<path style=" stroke:none;fill-rule:nonzero;fill:rgb(94.117647%,90.588235%,85.098039%);fill-opacity:1;" d="M 180 90 C 180 114.847656 169.925781 137.355469 153.644531 153.644531 C 145.789062 161.488281 136.5 167.898438 126.195312 172.417969 C 122.414062 154.164062 125.410156 134.761719 133.878906 118.101562 C 132.796875 115.335938 134.921875 112.371094 135 109.402344 C 135.054688 107.277344 134.117188 104.667969 132.46875 103.328125 C 128.898438 100.429688 125.3125 97.5 122.4375 93.90625 C 119.574219 90.316406 117.457031 85.960938 117.324219 81.378906 C 117.203125 77.050781 118.851562 72.820312 121.222656 69.1875 C 123.59375 65.554688 126.679688 62.453125 129.738281 59.378906 C 132.339844 56.757812 134.972656 54.125 138.101562 52.167969 C 141.230469 50.210938 144.960938 48.976562 148.628906 49.460938 C 155.167969 46.65625 163.121094 46.5 170.03125 48.800781 C 176.402344 61.140625 180 75.15625 180 90 Z M 180 90 "/>
<path style=" stroke:none;fill-rule:nonzero;fill:rgb(0%,0%,0%);fill-opacity:1;" d="M 14.835938 92.210938 C 17.144531 90.511719 20.125 89.734375 22.972656 90.078125 C 24.117188 90.21875 25.273438 90.546875 26.144531 91.296875 C 27.019531 92.035156 27.539062 93.261719 27.203125 94.347656 C 26.261719 94.179688 25.246094 94.777344 24.945312 95.667969 C 24.636719 96.558594 25.085938 97.644531 25.933594 98.066406 C 25.183594 99.777344 23.667969 101.152344 21.789062 101.398438 C 19.921875 101.644531 17.9375 100.851562 16.765625 99.398438 C 17.59375 98.980469 18.097656 98.039062 17.910156 97.140625 C 17.726562 96.242188 16.898438 95.507812 15.964844 95.4375 C 15.8125 96.066406 15.066406 96.46875 14.457031 96.257812 C 13.972656 95.234375 14.421875 93.261719 14.828125 92.210938 Z M 14.835938 92.210938 "/>
<path style=" stroke:none;fill-rule:nonzero;fill:rgb(0%,0%,0%);fill-opacity:1;" d="M 85.558594 124.351562 C 87.867188 122.648438 90.847656 121.875 93.695312 122.21875 C 94.839844 122.359375 95.996094 122.6875 96.867188 123.433594 C 97.738281 124.175781 98.257812 125.402344 97.925781 126.484375 C 96.980469 126.316406 95.96875 126.917969 95.667969 127.808594 C 95.367188 128.699219 95.808594 129.78125 96.65625 130.203125 C 95.90625 131.914062 94.390625 133.296875 92.519531 133.535156 C 90.652344 133.785156 88.667969 132.992188 87.496094 131.535156 C 88.324219 131.121094 88.828125 130.179688 88.644531 129.277344 C 88.457031 128.378906 87.621094 127.640625 86.695312 127.570312 C 86.542969 128.195312 85.796875 128.601562 85.179688 128.390625 C 84.695312 127.367188 85.144531 125.390625 85.546875 124.34375 L 85.558594 124.34375 Z M 85.558594 124.351562 "/>
<path style=" stroke:none;fill-rule:nonzero;fill:rgb(0%,0%,0%);fill-opacity:1;" d="M 155.265625 86.589844 C 157.574219 84.886719 160.546875 84.113281 163.402344 84.457031 C 164.546875 84.597656 165.703125 84.921875 166.574219 85.671875 C 167.449219 86.414062 167.96875 87.636719 167.632812 88.722656 C 166.6875 88.554688 165.675781 89.152344 165.375 90.042969 C 165.078125 90.933594 165.515625 92.019531 166.363281 92.441406 C 165.613281 94.152344 164.097656 95.527344 162.21875 95.773438 C 160.351562 96.019531 158.367188 95.226562 157.195312 93.773438 C 158.023438 93.359375 158.527344 92.414062 158.339844 91.515625 C 158.15625 90.617188 157.320312 89.886719 156.394531 89.816406 C 156.242188 90.441406 155.496094 90.847656 154.878906 90.632812 C 154.394531 89.613281 154.84375 87.636719 155.246094 86.589844 Z M 155.265625 86.589844 "/>
</g>
</svg>
