<?xml version="1.0" encoding="UTF-8"?>
<svg xmlns="http://www.w3.org/2000/svg" xmlns:xlink="http://www.w3.org/1999/xlink" width="16px" height="16px" viewBox="0 0 16 16" version="1.1">
<g id="surface1">
<path style=" stroke:none;fill-rule:nonzero;fill:rgb(94.509804%,39.607843%,20%);fill-opacity:1;" d="M 16 8 C 16 10.207031 15.105469 12.210938 13.65625 13.65625 C 12.960938 14.355469 12.132812 14.925781 11.21875 15.324219 C 11.097656 15.378906 10.972656 15.429688 10.847656 15.476562 C 9.964844 15.816406 9.003906 16 8 16 C 7.222656 16 6.472656 15.890625 5.761719 15.683594 C 5.359375 15.566406 4.972656 15.417969 4.601562 15.242188 C 3.757812 14.847656 2.992188 14.308594 2.34375 13.65625 C 0.894531 12.210938 0 10.207031 0 8 C 0 6.671875 0.324219 5.417969 0.898438 4.316406 C 1.277344 3.585938 1.765625 2.921875 2.34375 2.34375 C 3.789062 0.894531 5.792969 0 8 0 C 11.097656 0 13.785156 1.761719 15.113281 4.335938 C 15.679688 5.433594 16 6.679688 16 8 Z M 16 8 "/>
<path style=" stroke:none;fill-rule:nonzero;fill:rgb(94.117647%,90.588235%,85.098039%);fill-opacity:1;" d="M 10.847656 15.476562 C 9.964844 15.816406 9.003906 16 8 16 C 7.222656 16 6.472656 15.890625 5.761719 15.683594 C 5.957031 15.117188 6.15625 14.550781 6.355469 13.980469 C 6.585938 13.316406 6.820312 12.582031 6.578125 11.917969 C 6.476562 11.640625 6.300781 11.398438 6.179688 11.128906 C 6.058594 10.859375 6.011719 10.445312 6.152344 10.1875 C 5.898438 9.265625 5.929688 8.261719 6.246094 7.355469 C 6.296875 7.210938 6.378906 7.046875 6.527344 7.027344 C 6.695312 7.003906 6.824219 7.171875 6.910156 7.316406 C 7.164062 7.742188 7.414062 8.164062 7.667969 8.589844 C 8.027344 8.433594 8.449219 8.492188 8.792969 8.683594 C 9.035156 8.242188 9.238281 7.78125 9.480469 7.34375 C 9.5625 7.195312 9.667969 7.027344 9.835938 7.019531 C 10.023438 7.007812 10.15625 7.199219 10.234375 7.371094 C 10.617188 8.214844 10.679688 9.207031 10.402344 10.09375 C 10.558594 10.367188 10.605469 10.78125 10.5 11.078125 C 10.394531 11.378906 10.195312 11.632812 9.976562 11.859375 C 10.214844 12.699219 10.351562 13.585938 10.59375 14.425781 C 10.691406 14.769531 10.789062 15.121094 10.847656 15.476562 Z M 10.847656 15.476562 "/>
<path style=" stroke:none;fill-rule:nonzero;fill:rgb(94.117647%,90.588235%,85.098039%);fill-opacity:1;" d="M 1.429688 4.234375 C 1.425781 4.246094 1.421875 4.257812 1.421875 4.269531 C 1.417969 4.257812 1.421875 4.246094 1.429688 4.234375 Z M 1.429688 4.234375 "/>
<path style=" stroke:none;fill-rule:nonzero;fill:rgb(94.117647%,90.588235%,85.098039%);fill-opacity:1;" d="M 5.789062 8.015625 C 5.738281 7.945312 5.699219 7.871094 5.648438 7.796875 C 5.675781 8.023438 5.707031 8.246094 5.738281 8.46875 C 5.746094 8.515625 5.75 8.566406 5.730469 8.609375 C 5.703125 8.667969 5.632812 8.695312 5.570312 8.6875 C 5.507812 8.683594 5.449219 8.652344 5.394531 8.621094 C 5.164062 8.488281 4.960938 8.3125 4.796875 8.101562 C 4.835938 8.703125 5.03125 9.277344 5.226562 9.847656 C 5.421875 10.417969 5.578125 11.035156 5.441406 11.625 C 5.386719 11.503906 5.335938 11.386719 5.285156 11.265625 C 5.414062 11.875 5.382812 12.515625 5.203125 13.113281 C 4.984375 13.824219 4.546875 14.515625 4.601562 15.242188 C 3.757812 14.847656 2.992188 14.308594 2.34375 13.65625 C 0.894531 12.210938 0 10.207031 0 8 C 0 6.671875 0.324219 5.417969 0.898438 4.316406 C 1.070312 4.335938 1.234375 4.390625 1.378906 4.492188 C 1.40625 4.414062 1.402344 4.347656 1.421875 4.269531 C 1.421875 4.304688 1.453125 4.335938 1.488281 4.34375 C 1.535156 4.351562 1.582031 4.324219 1.625 4.300781 C 1.792969 4.203125 1.957031 4.109375 2.121094 4.011719 C 2.039062 4.117188 1.953125 4.226562 1.867188 4.332031 C 2.222656 4.328125 2.570312 4.195312 2.828125 3.945312 C 2.804688 4.046875 2.78125 4.144531 2.757812 4.246094 C 3.277344 4.125 3.769531 4.445312 4.207031 4.746094 C 4.667969 5.058594 5.136719 5.382812 5.46875 5.832031 C 5.800781 6.285156 5.96875 6.894531 5.761719 7.410156 C 5.691406 7.589844 5.785156 7.824219 5.789062 8.015625 Z M 5.789062 8.015625 "/>
<path style=" stroke:none;fill-rule:nonzero;fill:rgb(94.117647%,90.588235%,85.098039%);fill-opacity:1;" d="M 16 8 C 16 10.207031 15.105469 12.210938 13.65625 13.65625 C 12.960938 14.355469 12.132812 14.925781 11.21875 15.324219 C 10.882812 13.703125 11.148438 11.980469 11.902344 10.496094 C 11.804688 10.25 11.992188 9.988281 12 9.722656 C 12.003906 9.535156 11.921875 9.304688 11.773438 9.183594 C 11.457031 8.925781 11.140625 8.667969 10.882812 8.347656 C 10.628906 8.027344 10.441406 7.640625 10.429688 7.234375 C 10.417969 6.847656 10.566406 6.472656 10.773438 6.148438 C 10.984375 5.828125 11.261719 5.550781 11.53125 5.277344 C 11.761719 5.046875 11.996094 4.8125 12.277344 4.636719 C 12.554688 4.464844 12.886719 4.351562 13.210938 4.394531 C 13.792969 4.148438 14.5 4.132812 15.113281 4.335938 C 15.679688 5.433594 16 6.679688 16 8 Z M 16 8 "/>
<path style=" stroke:none;fill-rule:nonzero;fill:rgb(0%,0%,0%);fill-opacity:1;" d="M 1.320312 8.195312 C 1.523438 8.046875 1.789062 7.976562 2.042969 8.007812 C 2.144531 8.019531 2.246094 8.046875 2.324219 8.113281 C 2.402344 8.179688 2.449219 8.289062 2.417969 8.386719 C 2.335938 8.371094 2.242188 8.425781 2.21875 8.503906 C 2.191406 8.582031 2.230469 8.679688 2.304688 8.71875 C 2.238281 8.867188 2.105469 8.992188 1.9375 9.011719 C 1.769531 9.035156 1.59375 8.964844 1.492188 8.835938 C 1.5625 8.796875 1.609375 8.714844 1.59375 8.632812 C 1.574219 8.554688 1.503906 8.488281 1.417969 8.484375 C 1.40625 8.539062 1.339844 8.574219 1.285156 8.554688 C 1.242188 8.464844 1.28125 8.289062 1.316406 8.195312 Z M 1.320312 8.195312 "/>
<path style=" stroke:none;fill-rule:nonzero;fill:rgb(0%,0%,0%);fill-opacity:1;" d="M 7.605469 11.054688 C 7.808594 10.902344 8.074219 10.832031 8.328125 10.863281 C 8.429688 10.875 8.53125 10.90625 8.609375 10.972656 C 8.6875 11.039062 8.734375 11.148438 8.703125 11.242188 C 8.621094 11.226562 8.53125 11.28125 8.503906 11.359375 C 8.476562 11.441406 8.515625 11.535156 8.589844 11.574219 C 8.523438 11.726562 8.390625 11.847656 8.222656 11.871094 C 8.058594 11.890625 7.882812 11.820312 7.777344 11.691406 C 7.851562 11.65625 7.894531 11.570312 7.878906 11.492188 C 7.863281 11.410156 7.789062 11.347656 7.707031 11.339844 C 7.691406 11.394531 7.625 11.429688 7.570312 11.414062 C 7.527344 11.320312 7.566406 11.144531 7.605469 11.050781 Z M 7.605469 11.054688 "/>
<path style=" stroke:none;fill-rule:nonzero;fill:rgb(0%,0%,0%);fill-opacity:1;" d="M 13.800781 7.695312 C 14.007812 7.546875 14.269531 7.476562 14.523438 7.507812 C 14.625 7.519531 14.730469 7.546875 14.804688 7.617188 C 14.882812 7.679688 14.929688 7.789062 14.902344 7.886719 C 14.816406 7.871094 14.726562 7.925781 14.699219 8.003906 C 14.671875 8.082031 14.710938 8.179688 14.789062 8.21875 C 14.722656 8.367188 14.585938 8.492188 14.417969 8.511719 C 14.253906 8.535156 14.078125 8.464844 13.972656 8.335938 C 14.046875 8.296875 14.089844 8.214844 14.074219 8.136719 C 14.058594 8.054688 13.984375 7.988281 13.902344 7.984375 C 13.886719 8.039062 13.820312 8.074219 13.765625 8.054688 C 13.722656 7.964844 13.765625 7.789062 13.800781 7.695312 Z M 13.800781 7.695312 "/>
</g>
</svg>
