<?xml version="1.0" encoding="UTF-8"?>
<svg xmlns="http://www.w3.org/2000/svg" xmlns:xlink="http://www.w3.org/1999/xlink" width="32px" height="32px" viewBox="0 0 32 32" version="1.1">
<g id="surface1">
<path style=" stroke:none;fill-rule:nonzero;fill:rgb(94.509804%,39.607843%,20%);fill-opacity:1;" d="M 32 16 C 32 20.417969 30.207031 24.417969 27.3125 27.3125 C 25.917969 28.710938 24.265625 29.847656 22.433594 30.652344 C 22.191406 30.761719 21.945312 30.859375 21.699219 30.953125 C 19.929688 31.628906 18.007812 32 16 32 C 14.445312 32 12.945312 31.777344 11.523438 31.367188 C 10.722656 31.132812 9.945312 30.835938 9.203125 30.484375 C 7.515625 29.695312 5.988281 28.617188 4.6875 27.3125 C 1.792969 24.417969 0 20.417969 0 16 C 0 13.34375 0.648438 10.835938 1.792969 8.632812 C 2.554688 7.167969 3.53125 5.839844 4.6875 4.6875 C 7.582031 1.792969 11.582031 0 16 0 C 22.195312 0 27.570312 3.523438 30.226562 8.675781 C 31.359375 10.871094 32 13.359375 32 16 Z M 32 16 "/>
<path style=" stroke:none;fill-rule:nonzero;fill:rgb(94.117647%,90.588235%,85.098039%);fill-opacity:1;" d="M 21.699219 30.953125 C 19.929688 31.628906 18.007812 32 16 32 C 14.445312 32 12.945312 31.777344 11.523438 31.367188 C 11.917969 30.230469 12.3125 29.097656 12.707031 27.964844 C 13.171875 26.628906 13.640625 25.160156 13.15625 23.832031 C 12.953125 23.277344 12.597656 22.792969 12.359375 22.257812 C 12.117188 21.71875 12.023438 20.890625 12.308594 20.375 C 11.796875 18.527344 11.863281 16.523438 12.488281 14.710938 C 12.589844 14.421875 12.753906 14.097656 13.058594 14.054688 C 13.390625 14.007812 13.644531 14.339844 13.820312 14.632812 C 14.324219 15.484375 14.832031 16.332031 15.335938 17.179688 C 16.054688 16.871094 16.894531 16.984375 17.582031 17.367188 C 18.070312 16.484375 18.472656 15.566406 18.960938 14.683594 C 19.121094 14.390625 19.339844 14.058594 19.671875 14.039062 C 20.046875 14.015625 20.3125 14.398438 20.46875 14.742188 C 21.234375 16.433594 21.359375 18.410156 20.804688 20.183594 C 21.113281 20.734375 21.214844 21.5625 21 22.160156 C 20.789062 22.753906 20.390625 23.269531 19.949219 23.722656 C 20.425781 25.398438 20.707031 27.175781 21.183594 28.851562 C 21.382812 29.542969 21.578125 30.246094 21.699219 30.953125 Z M 21.699219 30.953125 "/>
<path style=" stroke:none;fill-rule:nonzero;fill:rgb(94.117647%,90.588235%,85.098039%);fill-opacity:1;" d="M 2.863281 8.46875 C 2.855469 8.492188 2.847656 8.519531 2.839844 8.542969 C 2.839844 8.515625 2.84375 8.488281 2.863281 8.46875 Z M 2.863281 8.46875 "/>
<path style=" stroke:none;fill-rule:nonzero;fill:rgb(94.117647%,90.588235%,85.098039%);fill-opacity:1;" d="M 11.582031 16.03125 C 11.472656 15.886719 11.402344 15.738281 11.292969 15.59375 C 11.355469 16.042969 11.417969 16.492188 11.476562 16.9375 C 11.488281 17.03125 11.5 17.132812 11.457031 17.21875 C 11.402344 17.332031 11.265625 17.386719 11.140625 17.378906 C 11.015625 17.367188 10.898438 17.308594 10.789062 17.246094 C 10.332031 16.976562 9.921875 16.621094 9.59375 16.203125 C 9.671875 17.40625 10.0625 18.554688 10.453125 19.695312 C 10.84375 20.839844 11.15625 22.070312 10.882812 23.246094 C 10.777344 23.007812 10.671875 22.769531 10.566406 22.53125 C 10.824219 23.75 10.769531 25.035156 10.402344 26.226562 C 9.96875 27.648438 9.09375 29.027344 9.203125 30.484375 C 7.515625 29.695312 5.988281 28.617188 4.6875 27.3125 C 1.792969 24.417969 0 20.417969 0 16 C 0 13.34375 0.648438 10.835938 1.792969 8.632812 C 2.140625 8.671875 2.472656 8.78125 2.761719 8.984375 C 2.816406 8.824219 2.804688 8.695312 2.839844 8.542969 C 2.847656 8.605469 2.90625 8.671875 2.972656 8.683594 C 3.070312 8.703125 3.164062 8.648438 3.25 8.601562 C 3.582031 8.410156 3.914062 8.214844 4.246094 8.023438 C 4.074219 8.238281 3.902344 8.453125 3.730469 8.667969 C 4.441406 8.660156 5.144531 8.386719 5.652344 7.890625 C 5.609375 8.089844 5.5625 8.292969 5.519531 8.492188 C 6.554688 8.253906 7.535156 8.894531 8.414062 9.492188 C 9.335938 10.121094 10.277344 10.765625 10.941406 11.667969 C 11.601562 12.566406 11.941406 13.785156 11.523438 14.824219 C 11.382812 15.175781 11.566406 15.648438 11.582031 16.03125 Z M 11.582031 16.03125 "/>
<path style=" stroke:none;fill-rule:nonzero;fill:rgb(94.117647%,90.588235%,85.098039%);fill-opacity:1;" d="M 32 16 C 32 20.417969 30.207031 24.417969 27.3125 27.3125 C 25.917969 28.710938 24.265625 29.847656 22.433594 30.652344 C 21.761719 27.40625 22.296875 23.957031 23.800781 20.996094 C 23.609375 20.503906 23.984375 19.976562 24 19.449219 C 24.007812 19.070312 23.84375 18.609375 23.550781 18.371094 C 22.914062 17.855469 22.277344 17.332031 21.765625 16.695312 C 21.257812 16.054688 20.882812 15.28125 20.859375 14.46875 C 20.835938 13.699219 21.128906 12.945312 21.550781 12.300781 C 21.972656 11.65625 22.519531 11.101562 23.0625 10.554688 C 23.527344 10.089844 23.996094 9.621094 24.550781 9.273438 C 25.109375 8.925781 25.769531 8.707031 26.421875 8.792969 C 27.585938 8.292969 29 8.265625 30.226562 8.675781 C 31.359375 10.871094 32 13.359375 32 16 Z M 32 16 "/>
<path style=" stroke:none;fill-rule:nonzero;fill:rgb(0%,0%,0%);fill-opacity:1;" d="M 2.636719 16.394531 C 3.046875 16.089844 3.578125 15.953125 4.082031 16.015625 C 4.289062 16.039062 4.492188 16.097656 4.648438 16.230469 C 4.804688 16.363281 4.894531 16.578125 4.835938 16.773438 C 4.667969 16.742188 4.488281 16.847656 4.433594 17.007812 C 4.378906 17.164062 4.460938 17.359375 4.609375 17.433594 C 4.476562 17.738281 4.207031 17.980469 3.875 18.027344 C 3.542969 18.070312 3.1875 17.929688 2.980469 17.671875 C 3.128906 17.597656 3.21875 17.429688 3.183594 17.269531 C 3.152344 17.109375 3.003906 16.980469 2.839844 16.96875 C 2.8125 17.078125 2.679688 17.148438 2.570312 17.113281 C 2.484375 16.929688 2.5625 16.578125 2.636719 16.394531 Z M 2.636719 16.394531 "/>
<path style=" stroke:none;fill-rule:nonzero;fill:rgb(0%,0%,0%);fill-opacity:1;" d="M 15.210938 22.105469 C 15.621094 21.804688 16.152344 21.667969 16.65625 21.726562 C 16.859375 21.753906 17.066406 21.8125 17.222656 21.945312 C 17.375 22.074219 17.46875 22.292969 17.410156 22.484375 C 17.242188 22.457031 17.0625 22.5625 17.007812 22.722656 C 16.953125 22.878906 17.03125 23.074219 17.183594 23.148438 C 17.050781 23.453125 16.78125 23.699219 16.449219 23.738281 C 16.117188 23.785156 15.761719 23.644531 15.554688 23.382812 C 15.703125 23.308594 15.792969 23.144531 15.757812 22.984375 C 15.726562 22.824219 15.578125 22.691406 15.414062 22.679688 C 15.386719 22.789062 15.253906 22.863281 15.144531 22.824219 C 15.054688 22.644531 15.136719 22.292969 15.207031 22.105469 Z M 15.210938 22.105469 "/>
<path style=" stroke:none;fill-rule:nonzero;fill:rgb(0%,0%,0%);fill-opacity:1;" d="M 27.601562 15.394531 C 28.011719 15.089844 28.542969 14.953125 29.050781 15.015625 C 29.253906 15.039062 29.457031 15.097656 29.613281 15.230469 C 29.769531 15.363281 29.859375 15.578125 29.800781 15.773438 C 29.632812 15.742188 29.453125 15.847656 29.398438 16.007812 C 29.347656 16.167969 29.425781 16.359375 29.574219 16.433594 C 29.441406 16.738281 29.171875 16.984375 28.839844 17.027344 C 28.507812 17.070312 28.15625 16.929688 27.945312 16.671875 C 28.09375 16.597656 28.183594 16.429688 28.148438 16.269531 C 28.117188 16.109375 27.96875 15.980469 27.804688 15.96875 C 27.777344 16.078125 27.644531 16.152344 27.535156 16.113281 C 27.449219 15.929688 27.527344 15.578125 27.597656 15.394531 Z M 27.601562 15.394531 "/>
</g>
</svg>
