<svg width="374" height="337" viewBox="0 0 374 337" fill="none" xmlns="http://www.w3.org/2000/svg">
<path d="M128.224 300.87C122.188 300.591 116.667 304.115 111.967 307.919C108.281 310.9 104.728 314.278 102.848 318.639C100.968 323 101.189 328.537 104.478 331.944C106.71 334.264 109.985 335.277 113.142 335.909C126.711 338.596 141.323 335.6 152.748 327.788C154.04 326.907 155.318 325.938 156.214 324.645C157.33 323.045 157.785 321.077 158.739 319.373C159.841 317.449 161.559 315.952 163.233 314.512C165.392 312.662 167.536 310.797 169.695 308.947C171.956 307.008 175.113 306.171 178.08 306.421C193.293 307.743 208.625 307.919 223.868 306.935C227.231 306.715 230.652 306.421 233.736 305.055C244.06 300.474 248.333 284.614 259.068 281.119C262.416 285.216 266.572 288.637 271.227 291.163C274.047 292.69 277.336 293.851 280.537 293.572C281.565 296.861 282.608 300.15 283.636 303.44C284.267 305.452 284.914 307.508 286.177 309.196C288.526 312.368 292.535 313.749 296.295 314.953C304.562 317.596 312.874 320.298 321.538 319.887C333.815 328.39 349.249 332.223 364.081 330.475C366.886 330.137 369.881 329.521 371.82 327.45C374.434 324.675 374.228 320.269 373.068 316.657C369.426 305.29 358.148 297.537 346.4 295.422C344.741 295.128 343.037 294.908 341.495 294.203C339.762 293.395 338.367 292.015 337.002 290.679C328.94 282.851 320.084 274.892 310.451 269.106C306.648 249.252 307.778 228.84 307.264 208.633C306.838 191.789 305.267 174.975 302.565 158.351C305.15 159.13 307.441 160.804 308.982 163.021C306.045 155.326 305.546 151.288 301.243 145.032C299.393 142.33 299.041 141.845 297.102 139.202C295.164 136.559 292.139 131.287 294.371 128.893C295.883 127.263 296.72 125.281 296.72 125.281C297.969 124.062 299.936 123.533 303.828 123.548C301.963 121.33 300.098 119.113 298.233 116.91C301.053 118.29 303.872 119.656 306.706 121.037C303.784 117.688 302.697 113.092 302.624 108.642C302.55 104.193 303.138 99.7579 303.505 95.323C306.442 98.5243 310.216 100.962 314.343 102.328C316.075 102.9 317.97 103.297 319.732 102.827C322.816 102.005 324.637 98.8914 326.076 96.0278C329.865 88.4356 333.404 80.4323 339.586 74.6023C341.716 72.5905 344.153 70.8577 345.96 68.5521C347.766 66.2465 348.897 63.1186 347.913 60.3578C347.457 59.0949 346.606 58.0082 345.754 56.9655C327.148 34.2624 302.712 16.376 275.427 5.52375C269.568 3.18883 263.503 1.16222 257.203 0.780412C251.299 0.42797 245.337 3.11532 239.507 2.04331C232.796 0.824445 225.909 2.0874 219.271 3.64402C214.352 4.80414 209.403 6.15517 205.086 8.7838C200.768 11.4124 196.788 15.4215 195.702 20.3556C189.211 20.6934 182.764 21.736 176.494 23.4689C170.458 33.0289 169.048 44.5566 172.235 55.3942C173.674 60.2844 176.406 65.2479 181.105 67.2304C181.854 67.5535 182.735 68.1849 182.999 68.9485C184.438 73.0163 179.93 77.0107 179.475 81.2987C179.078 85.0434 181.472 88.5825 184.365 90.9908C187.258 93.3992 190.738 95.044 193.69 97.3936C199.373 101.917 202.354 110.493 203.235 117.688C203.676 121.286 203.544 124.928 203.397 128.555C194.086 136.382 182.661 142.682 171.413 147.308C150.193 156.016 126.843 158.395 105.389 166.502C92.0985 171.524 79.6896 178.675 68.1912 187.017C63.9913 190.056 59.7767 193.419 57.4858 198.075C55.6502 201.79 55.2096 206.034 54.9746 210.175C54.6075 216.387 54.7103 222.936 57.6767 228.399C48.9244 236.711 41.1707 249.414 39.7462 261.397C38.3218 273.38 43.065 286.435 53.139 293.072C61.627 298.667 72.3765 299.137 82.5385 299.431C98.1047 299.886 112.643 300.371 128.209 300.826L128.224 300.87Z" fill="#9D532B"/>
<path d="M184.615 23.148C180.107 23.0159 175.584 24.9249 172.529 28.229C171.898 28.9192 171.311 29.6682 170.987 30.5493C169.96 33.3541 171.825 36.3646 171.986 39.3456C172.03 40.1093 171.957 40.8729 172.059 41.6218C172.324 43.4721 173.675 45.0581 175.32 45.9539C176.964 46.8497 178.873 47.1434 180.753 47.1728C185.467 47.2756 190.342 45.7483 193.647 42.3855C196.745 39.2282 198.463 33.8094 196.613 29.5654C194.763 25.3214 188.8 23.2655 184.615 23.148Z" fill="#1F1D1D" stroke="#1F1D1D" stroke-width="1.83733" stroke-miterlimit="10" stroke-linecap="round"/>
<path d="M286.25 16.5376C297.219 28.271 299.055 45.7902 298.277 61.8263C297.909 69.5654 297.072 77.4366 298.835 84.9994C300.597 92.5623 305.619 99.9047 313.109 101.917" stroke="#1F1D1D" stroke-width="1.83733" stroke-miterlimit="10" stroke-linecap="round"/>
<path d="M257.041 24.3066C251.931 24.4387 246.351 23.6457 241.696 21.5164C239.992 22.8527 237.643 23.3374 235.557 22.7646C239.963 23.7632 244.177 25.1142 248.7 25.2317C251.931 25.3052 253.825 24.6737 257.041 24.2919V24.3066Z" fill="#1F1D1D" stroke="#1F1D1D" stroke-width="1.83733" stroke-linecap="round" stroke-linejoin="round"/>
<path d="M217.685 73.4997C215.806 71.6347 213.471 66.1865 213.485 63.5432C213.5 60.8999 214.088 58.3006 214.411 55.672C214.998 50.914 214.66 46.0533 213.412 41.4422C212.81 39.1807 211.929 36.8898 210.269 35.2304C208.874 33.8353 207.039 32.9835 205.232 32.1612C202.002 30.6927 198.404 29.1948 195.026 30.2374C193.896 30.5899 192.868 31.2067 191.854 31.8529C187.772 34.4374 183.66 37.6974 182.309 42.3379C181.252 45.9798 182.074 49.9007 183.205 53.528C185.07 59.5342 187.772 65.2761 191.179 70.5627C194.953 76.3927 204.395 75.2326 211.253 74.1459C213.25 73.8228 216.158 74.8507 217.685 73.4997Z" fill="#EEA5A4"/>
<path d="M196.318 40.1104C196.113 44.6627 196.025 49.2885 197.155 53.6941C198.36 58.3199 200.856 62.4904 203.338 66.5875" stroke="#1F1D1D" stroke-width="1.83733" stroke-miterlimit="10" stroke-linecap="round"/>
<path d="M183.924 70.7385C186.127 72.2951 188.858 72.9118 191.502 73.4552C197.875 74.7475 204.395 75.8195 210.842 75.0118C218.948 74.0132 226.393 70.1511 233.633 66.3477" stroke="#1F1D1D" stroke-width="1.83733" stroke-miterlimit="10" stroke-linecap="round"/>
<path d="M112.129 323.572C111.82 320.635 114.038 318.094 116.094 315.965C117.547 314.467 119.06 312.925 121.013 312.191" stroke="#1F1D1D" stroke-width="1.83733" stroke-miterlimit="10" stroke-linecap="round"/>
<path d="M124.538 326.687C123.657 322.34 125.83 317.568 129.663 315.35" stroke="#1F1D1D" stroke-width="1.83733" stroke-miterlimit="10" stroke-linecap="round"/>
<path d="M137.71 324.09C137.52 322.387 137.329 320.654 137.534 318.95C137.74 317.247 138.401 315.529 139.649 314.369" stroke="#1F1D1D" stroke-width="1.83733" stroke-miterlimit="10" stroke-linecap="round"/>
<path d="M340.644 310.358C343.346 313.853 344.639 318.39 344.183 322.781" stroke="#1F1D1D" stroke-width="1.83733" stroke-miterlimit="10" stroke-linecap="round"/>
<path d="M353.273 312.178C356.915 315.115 358.897 319.961 358.369 324.601" stroke="#1F1D1D" stroke-width="1.83733" stroke-miterlimit="10" stroke-linecap="round"/>
<path d="M361.554 308.8C365.593 311.502 368.603 315.716 369.822 320.43" stroke="#1F1D1D" stroke-width="1.83733" stroke-miterlimit="10" stroke-linecap="round"/>
<path d="M89.8809 235.331C90.0277 257.653 101.159 279.651 119.06 292.985" stroke="#1F1D1D" stroke-width="1.83733" stroke-miterlimit="10" stroke-linecap="round"/>
<path d="M241.666 220.071C242.709 228.5 238.333 237.355 230.99 241.643C233.222 241.687 235.44 241.526 237.643 241.173C233.325 246.915 227.95 251.864 221.871 255.697" stroke="#1F1D1D" stroke-width="1.83733" stroke-linecap="round" stroke-linejoin="round"/>
<path d="M254.56 232.159C254.413 233.95 255.25 235.683 256.249 237.181C259.024 241.337 263.106 244.406 267.101 247.402C264.09 247.563 261.051 246.903 258.378 245.522C258.451 249.399 261.653 252.409 264.604 254.906" stroke="#1F1D1D" stroke-width="1.83733" stroke-linecap="round" stroke-linejoin="round"/>
<path d="M268.437 90.6986C274.473 91.3007 281.11 91.7413 286.059 88.2168C288.438 86.5134 290.186 84.0315 291.405 81.3735" stroke="#1F1D1D" stroke-width="1.83733" stroke-linecap="round" stroke-linejoin="round"/>
<path d="M179.547 84.1787C180.252 88.4814 183.777 91.903 187.786 93.6652C191.795 95.4274 196.23 95.7799 200.591 96.0589C208.785 96.5876 217.009 96.9253 225.218 96.4113C229.653 96.1323 234.132 95.6183 238.537 96.2498C242.943 96.8813 247.378 98.8931 249.816 102.608C248.611 100.229 247.407 97.8505 246.203 95.4862C249.566 95.5449 252.914 96.3379 255.954 97.777" stroke="#1F1D1D" stroke-width="1.83733" stroke-linecap="round" stroke-linejoin="round"/>
<path d="M269.685 46.2004C270.228 52.4563 270.537 59.4758 266.41 64.2191" stroke="#1F1D1D" stroke-width="1.83733" stroke-linecap="round" stroke-linejoin="round"/>
<path d="M162.661 237.652L156.566 261.222C156.023 263.337 155.465 265.466 154.437 267.404C153.159 269.798 151.236 271.736 149.4 273.734C141.984 281.84 135.993 291.121 130.045 300.358" stroke="#1F1D1D" stroke-width="1.83733" stroke-linecap="round" stroke-linejoin="round"/>
<path d="M201.091 260.588C198.859 263.026 196.671 265.493 194.512 268.004C192.118 270.794 189.681 273.878 189.328 277.535C189.079 280.119 189.916 282.674 190.723 285.127C189.519 283.306 187.728 281.881 185.686 281.103C185.305 280.956 184.893 280.839 184.512 280.971C184.012 281.132 183.748 281.661 183.528 282.146C181.721 286.155 180.253 290.325 179.137 294.584" stroke="#1F1D1D" stroke-width="1.83733" stroke-linecap="round" stroke-linejoin="round"/>
<path d="M284.531 305.068C285.354 298.092 286.015 290.427 282.05 284.626C279.568 280.999 275.529 278.635 271.285 277.504C268.583 276.784 265.764 276.52 262.959 276.608C261.285 276.652 259.611 276.843 258.025 277.357C256.498 277.856 255.088 278.664 253.707 279.501C247.598 283.216 241.886 287.607 236.717 292.571C233.236 295.904 223.441 303.937 232.678 305.479C240.417 306.757 250.374 304.363 258.319 304.304C267.056 304.231 275.808 304.495 284.531 305.083V305.068Z" fill="#9D532B"/>
<path d="M50.1725 237.959C35.0028 239.031 21.6541 227.444 13.7975 214.419C-1.38683 189.204 -2.35606 157.103 6.71932 129.113C14.0178 106.63 27.2491 86.5556 43.1089 68.8894C45.6054 66.1139 50.0991 68.7573 48.9536 72.3111C39.2321 102.548 39.0999 136.47 45.3998 167.441C48.8508 184.358 55.2829 201.525 69.0281 212.319C70.3792 213.376 71.5393 214.668 72.2295 216.225C75.1518 222.833 70.9225 225.565 67.1484 227.767C59.6297 232.158 58.8514 237.327 50.1578 237.944L50.1725 237.959Z" fill="#9D532B"/>
<path d="M33.7543 208.238C24.0181 202.32 17.4245 192.084 14.2084 181.173C10.9924 170.262 10.8749 158.632 11.9029 147.295C12.4756 150.423 13.6357 153.433 15.2804 156.15C14.972 139.952 18.2321 123.696 24.7376 108.849" stroke="#1F1D1D" stroke-width="1.83733" stroke-linecap="round" stroke-linejoin="round"/>
</svg>
