<svg width="372" height="691" viewBox="0 0 372 691" fill="none" xmlns="http://www.w3.org/2000/svg">
<path d="M100.479 396.042C68.1784 402.614 35.863 409.171 3.56267 415.743C3.51724 415.743 3.48695 415.758 3.44152 415.773C-0.692555 416.621 -0.238258 422.709 3.97153 422.982C36.605 425.086 69.7987 425.359 101.781 417.969C110.973 415.849 148.225 409.262 139.881 393.695C133.794 382.322 109.565 394.194 100.464 396.042H100.479Z" fill="white"/>
<path d="M263.6 55.7765C262.207 56.246 260.405 57.5331 261.268 58.7294C261.48 59.0323 261.828 59.1989 262.176 59.3352C265.462 60.5769 268.991 58.6386 272.262 57.3665C278.728 54.8528 285.86 54.8982 292.796 54.9891C295.022 55.0194 297.49 55.1405 299.035 56.7305C300.64 58.366 300.64 61.1069 299.535 63.1209C298.429 65.135 296.46 66.513 294.416 67.5427C290.297 69.6476 285.694 70.6319 281.136 71.4345C268.733 73.6303 255.211 74.4783 244.247 68.2545C241.597 66.7553 239.098 64.7867 237.66 62.1063C235.585 58.2448 236.009 53.399 237.932 49.4618C239.855 45.5246 243.111 42.4051 246.594 39.7399C255.953 32.5924 267.477 28.3069 279.228 27.5952C281.605 27.4437 284.043 27.4589 286.315 28.1857C288.934 29.0186 294.749 32.3804 294.507 35.6664C294.265 38.9525 287.541 40.9665 285.27 42.4506C278.168 47.0844 271.747 53.0659 263.57 55.8068L263.6 55.7765Z" fill="#EEA5A4"/>
<path d="M179.479 96.7223C183.689 113.107 187.899 129.477 192.109 145.862C192.911 148.966 193.714 152.161 193.184 155.326C192.609 158.824 190.504 161.823 188.838 164.957C184.628 172.938 183.265 182.114 182.871 191.14C182.478 200.165 182.947 209.205 182.069 218.185C181.312 225.954 179.57 233.616 176.86 240.945C175.527 244.55 175.694 247.972 174.936 251.743C171.696 267.612 168.455 283.498 163.973 299.065C161.156 308.832 157.84 318.448 154.539 328.064C152.843 333 151.147 337.922 149.451 342.859C144.968 355.882 140.486 368.92 135.776 381.867C128.795 401.039 126.827 421.24 125.07 441.562C123.556 458.991 125.237 476.709 130.022 493.548C133.035 504.163 137.291 514.597 137.836 525.621C138.124 531.542 137.321 537.448 136.503 543.308C135.367 551.501 134.201 559.678 133.005 567.87C132.581 570.823 132.127 573.806 131.006 576.578C129.522 580.227 126.948 583.301 125.01 586.724C120.012 595.552 119.482 606.137 119.21 616.283C118.846 630.381 118.362 644.858 118.528 658.956C113.38 666.255 114.046 677.083 120.043 683.7C126.039 690.318 136.761 692.029 144.514 687.622C145.953 686.804 147.3 685.79 148.36 684.518C151.131 681.186 151.601 676.431 150.783 672.161C149.965 667.891 148.012 663.953 146.377 659.941C138.002 639.452 137.578 615.844 145.211 595.067C147.982 587.511 151.767 580.379 155.584 573.307C168.531 549.32 182.705 523.819 182.599 496.561C187.899 501.18 192.306 506.692 196.697 512.174C200.619 517.08 204.723 522.426 205.086 528.695C205.283 532.011 204.39 535.297 203.239 538.417C200.65 545.413 196.727 551.834 192.821 558.194C188.671 564.978 184.507 571.747 180.358 578.531C178.571 581.439 176.739 584.498 176.466 587.905C176.012 593.432 179.707 598.353 183.189 602.669C194.426 616.571 205.677 630.472 216.913 644.389C218.852 646.781 220.835 649.219 223.47 650.824C227.529 653.293 232.541 653.414 237.296 653.474C244.625 653.565 252.454 653.52 258.617 649.552C259.511 648.977 260.404 648.265 260.753 647.251C261.101 646.266 260.859 645.176 260.571 644.161C258.633 637.483 254.408 631.29 248.29 627.989C242.172 624.687 233.465 623.612 227.953 627.837C217.731 617.979 206.692 606.016 208.054 591.887C208.706 585.118 212.204 579.001 215.732 573.186C220.502 565.341 225.469 557.634 230.633 550.047C240.112 536.146 250.607 521.881 252.59 505.178C256.452 472.756 227.483 444.757 225.53 412.169C224.515 395.193 224.576 377.415 231.784 362.015C234.525 356.154 240.37 352.338 246.351 349.84C252.333 347.341 258.723 345.887 264.538 343.04C274.169 338.331 281.62 330.154 288.48 321.916C299.458 308.696 311.058 292.19 310.907 275.017C315.45 275.017 319.977 275.002 324.52 274.987C325.762 274.987 327.034 274.987 328.246 275.275C330.441 275.805 332.289 277.259 334.06 278.652C337.165 281.12 340.39 283.725 342.026 287.344C342.889 289.237 343.267 291.296 343.555 293.356C344.116 297.369 346.084 301.836 344.191 305.425C341.632 310.256 341.844 316.101 342.949 321.461C344.1 327.11 346.22 332.682 349.976 337.059C353.731 341.435 359.259 344.494 365.028 344.373C365.997 344.358 367.027 344.222 367.814 343.646C368.496 343.146 368.92 342.374 369.283 341.617C374.129 331.32 370.889 319.296 369.344 308.014C368.451 301.503 368.178 294.916 367.89 288.343C367.33 275.245 366.77 262.131 366.209 249.032C365.997 244.08 365.619 238.704 362.318 235.024C358.305 230.557 351.551 230.209 345.554 230.179C335.802 230.133 325.293 229.83 315.54 229.785C309.665 213.673 319.114 194.35 311.285 179.086C310.18 176.951 308.771 174.967 307.772 172.786C304.91 166.487 305.379 158.34 300.216 153.736C297.293 151.132 293.219 150.344 289.631 148.754C280.59 144.787 274.154 135.746 268.93 127.357C270.641 121.451 266.734 115.53 263.085 110.578C259.435 105.626 255.649 99.5844 257.588 93.7391C258.436 91.2102 260.268 89.1356 262.07 87.1822C264.084 85.0016 266.219 82.8058 268.96 81.6701C271.02 80.8221 273.291 80.6403 275.502 80.3678C279.651 79.8378 283.77 78.914 287.753 77.6117C292.099 76.1883 296.506 74.1439 299.171 70.4339C301.836 66.7238 302.078 60.9391 298.61 57.9559C293.204 53.2767 273.685 76.4608 242.596 63.8163C237.659 50.763 269.127 50.2784 281.332 38.9665C283.437 37.013 294.537 39.8751 296.142 37.4824C302.063 28.6691 302.638 16.5546 297.596 7.21133C296.157 4.56129 293.023 0.109209 290.357 1.51752C281.574 6.16646 272.61 10.876 262.827 12.6326C249.91 14.9646 235.948 12.0874 223.94 17.4027C212.461 22.4756 204.238 34.4992 191.821 36.4224C188.823 36.8919 185.582 36.7556 183.008 38.3607C181.024 39.6025 179.752 41.6922 178.601 43.7214C172.635 54.1702 167.577 65.1489 163.519 76.476C162.655 78.8686 163.261 81.9426 163.14 84.4867C163.064 86.1373 162.989 87.8485 163.655 89.3628C164.064 90.3168 164.745 91.1345 165.502 91.8462C169.409 95.5715 174.164 95.738 179.479 96.7223Z" fill="white"/>
<path d="M280.606 11.875C280.454 13.8739 281.984 15.6608 283.77 16.5542C285.557 17.4477 287.602 17.6748 289.555 18.114C292.629 18.8105 295.673 20.0523 298.808 19.81C299.186 19.7797 299.565 19.7191 299.883 19.5223C300.398 19.174 300.579 18.5228 300.685 17.902C301.352 14.0253 300.246 10.1032 299.156 6.31747C296.4 -3.25299 281.136 4.80316 280.59 11.8599L280.606 11.875Z" fill="#1F1D1D" stroke="#1F1D1D" stroke-width="2.21887" stroke-miterlimit="10" stroke-linecap="round"/>
<path d="M228.377 27.8489C229.77 29.2269 231.678 30.0446 233.632 30.1052C235.585 30.1658 237.554 29.4541 239.023 28.1669C239.492 27.758 239.931 27.2734 240.143 26.6829C240.325 26.1831 240.34 25.6228 240.249 25.0928C239.719 21.8068 235.298 19.3687 232.148 20.035C229.316 20.6256 226.015 25.4866 228.392 27.8337L228.377 27.8489Z" fill="white"/>
<path d="M229.512 21.4734C228.952 22.5637 229.225 24.0326 230.164 24.8504C230.451 25.0926 230.784 25.2895 231.118 25.4409C232.117 25.8952 233.222 26.0467 234.313 26.1678C235.494 26.2889 236.675 26.3344 237.856 26.3192C238.189 26.3192 238.553 26.2889 238.81 26.0618C238.931 25.9407 239.022 25.7892 239.083 25.6227C239.673 24.1083 238.931 22.2912 237.644 21.2766C235.751 19.7774 230.921 18.7477 229.512 21.4734Z" fill="#1F1D1D"/>
<path d="M274.912 217.261C271.929 225.015 275.336 234.676 282.514 238.84C285.921 240.824 289.888 241.596 293.75 242.353C302.881 244.125 312.013 245.882 321.265 246.836C327.807 247.502 334.439 247.775 340.815 249.35C347.19 250.924 353.474 253.983 357.502 259.177C364.665 268.445 362.954 281.453 364.226 293.098C365.15 301.548 367.8 309.695 370.42 317.766" stroke="#1F1D1D" stroke-width="2.21887" stroke-linecap="round" stroke-linejoin="round"/>
<path d="M205.481 227.362C209.675 240.339 214.597 253.09 220.185 265.538C221.896 269.354 223.819 273.306 227.242 275.699C231.588 278.758 237.342 278.621 242.642 278.364C266.674 277.228 290.706 276.092 314.739 274.942" stroke="#1F1D1D" stroke-width="2.21887" stroke-linecap="round" stroke-linejoin="round"/>
<path d="M181.388 399.552C177.996 417.3 174.589 435.32 176.194 453.31C177.072 463.168 179.434 472.829 180.494 482.657C183.054 506.311 177.769 530.752 165.669 551.225" stroke="#1F1D1D" stroke-width="2.21887" stroke-linecap="round" stroke-linejoin="round"/>
<path d="M189.383 50.7471C188.975 57.6069 188.581 64.5576 190.05 71.2812C190.852 74.9458 192.2 78.459 193.336 82.0328C194.82 86.6969 195.925 91.4669 196.667 96.2976C196.819 97.2819 196.849 98.4782 196.016 99.0234C195.516 99.3414 194.88 99.2959 194.29 99.2202C187.733 98.4782 181.236 97.2819 174.846 95.6313C170.106 94.4047 164.806 92.3604 163.201 87.7417C161.914 84.0165 163.534 79.9733 165.139 76.3692" stroke="#1F1D1D" stroke-width="2.21887" stroke-linecap="round" stroke-linejoin="round"/>
<path d="M238.236 109.092C239.28 109.895 240.386 110.728 241.688 110.955C243.172 108.335 242.778 105.019 243.975 102.248C244.626 100.763 245.731 99.3855 245.716 97.7652C245.716 96.4326 244.883 95.206 243.823 94.4185C242.763 93.6311 241.461 93.1919 240.174 92.8588C236.615 91.9351 232.935 91.6322 229.256 91.4808C225.258 91.3142 222.926 90.7539 225.016 95.1C227.878 101.006 233.117 105.17 238.205 109.092H238.236Z" fill="#1F1D1D" stroke="#010201" stroke-width="2.21887" stroke-miterlimit="10" stroke-linecap="round"/>
<path d="M275.396 97.1601C275.396 97.7658 275.366 98.3867 275.124 98.9469C274.624 100.052 273.352 100.582 272.156 100.764C269.702 101.128 267.204 100.476 264.932 99.4921C262.661 98.5078 260.556 97.1752 258.315 96.1C257.679 95.7972 256.997 95.4792 256.573 94.9037C255.498 93.4651 256.634 91.4511 257.8 90.0882C260.829 86.5296 268.037 79.2609 273.488 81.0023C277.759 82.3501 275.472 93.8134 275.396 97.1601Z" fill="#1F1D1D" stroke="#010201" stroke-width="2.21887" stroke-miterlimit="10" stroke-linecap="round"/>
<path d="M265.402 144.59C265.569 145.195 265.765 145.847 266.265 146.24C266.674 146.573 267.234 146.664 267.749 146.755C271.384 147.376 274.942 148.497 278.274 150.087C278.561 147.936 277.728 145.786 276.82 143.817C274.2 138.033 270.808 132.551 266.462 127.917C263.191 124.434 260.193 125.6 261.404 130.325C262.616 135.05 264.069 139.835 265.402 144.59Z" fill="#1F1D1D" stroke="#010201" stroke-width="2.21887" stroke-miterlimit="10" stroke-linecap="round"/>
<path d="M298.232 167.729C299.231 168.653 300.352 169.622 301.715 169.667C301.745 167.835 301.76 165.972 301.306 164.185C300.852 162.398 299.867 160.687 298.292 159.748C297.384 159.203 296.324 158.946 295.294 158.688C291.841 157.795 288.54 156.281 285.133 155.387C287.904 159.976 294.249 164.064 298.232 167.744V167.729Z" fill="#1F1D1D" stroke="#010201" stroke-width="2.21887" stroke-linecap="round" stroke-linejoin="round"/>
<path d="M289.388 188.32C289.419 189.017 289.464 189.728 289.767 190.349C290.085 190.955 290.63 191.409 291.16 191.833C292.478 192.878 293.931 193.908 295.612 193.999C298.02 194.135 300.231 192.091 300.7 189.713C301.17 187.336 300.14 184.852 298.459 183.111C296.748 181.354 293.947 179.961 291.433 180.567C288.177 181.339 289.282 185.473 289.388 188.32Z" fill="#1F1D1D" stroke="#010201" stroke-width="2.21887" stroke-linecap="round" stroke-linejoin="round"/>
<path d="M297.626 219.791C299.807 217.838 301.427 214.945 300.943 212.053C300.428 208.949 297.233 206.602 294.113 206.798C291.281 206.98 290.418 208.903 289.676 211.356C289.04 213.492 286.844 218.928 287.995 220.851C290.009 224.183 295.597 221.608 297.626 219.791Z" fill="#1F1D1D" stroke="#010201" stroke-width="2.21887" stroke-linecap="round" stroke-linejoin="round"/>
<path d="M292.463 232.783C293.402 231.965 294.356 231.132 295.476 230.602C296.597 230.072 297.929 229.83 299.095 230.254C300.383 230.723 301.306 231.935 301.715 233.237C302.124 234.539 302.094 235.963 301.927 237.326C301.7 239.309 301.231 241.278 300.549 243.156C298.247 243.004 295.946 242.853 293.629 242.686C291.509 242.55 286.89 241.702 287.011 238.885C287.102 236.72 290.994 234.07 292.463 232.798V232.783Z" fill="#1F1D1D" stroke="#010201" stroke-width="2.21887" stroke-linecap="round" stroke-linejoin="round"/>
<path d="M316.404 246.835C318.752 245.593 321.114 244.185 322.704 242.05C324.294 239.915 324.9 236.856 323.552 234.569C322.961 233.57 322.068 232.813 321.129 232.146C317.631 229.693 316.48 230.829 316.344 234.766C316.208 238.703 316.344 242.822 316.404 246.835Z" fill="#1F1D1D" stroke="#010201" stroke-width="2.21887" stroke-linecap="round" stroke-linejoin="round"/>
<path d="M341.481 241.974C343.783 240.869 347.19 238.9 343.208 237.659C341.315 237.068 338.392 237.462 336.575 238.158C330.639 240.46 337.529 243.867 341.481 241.959V241.974Z" fill="#1F1D1D" stroke="#010201" stroke-width="2.21887" stroke-linecap="round" stroke-linejoin="round"/>
<path d="M347.008 276.305C348.886 278.137 350.824 279.954 352.232 282.165C352.566 282.68 353.02 283.301 353.626 283.195C353.898 283.15 354.11 282.953 354.307 282.756C356.987 280.106 358.608 276.381 358.699 272.61C358.805 268.779 354.807 264.857 350.854 266.568C348.31 267.658 344.706 274.033 347.008 276.305Z" fill="#1F1D1D" stroke="#010201" stroke-width="2.21887" stroke-linecap="round" stroke-linejoin="round"/>
<path d="M329.351 265.249C331.002 265.324 332.925 265.582 333.788 266.99C334.228 267.717 334.288 268.61 334.318 269.458C334.349 270.322 334.349 271.261 333.864 271.957C333.228 272.851 332.032 273.078 330.942 273.229C326.414 273.88 321.629 274.501 317.434 272.654C316.601 272.29 315.798 271.821 315.162 271.155C314.375 270.306 312.527 267.838 312.77 266.596C313.163 264.537 314.935 265.052 316.737 265.052C320.932 265.037 325.142 265.052 329.336 265.249H329.351Z" fill="#1F1D1D" stroke="#010201" stroke-width="2.21887" stroke-linecap="round" stroke-linejoin="round"/>
<path d="M262.6 264.975C261.389 266.383 260.344 268.276 260.995 270.018C268.128 271.335 275.805 269.397 281.439 264.823C281.969 264.399 282.529 263.748 282.256 263.127C282.165 262.915 281.984 262.764 281.802 262.613C278.743 259.978 276.275 256.192 272.08 258.054C268.597 259.599 265.084 262.098 262.6 264.99V264.975Z" fill="#1F1D1D" stroke="#010201" stroke-width="2.21887" stroke-linecap="round" stroke-linejoin="round"/>
<path d="M262.949 242.444C263.449 243.141 264.206 243.641 264.978 244.019C266.689 244.852 268.612 245.231 270.52 245.079C271.959 244.973 273.579 244.383 274.034 243.02C274.533 241.46 273.125 239.84 271.565 239.325C269.657 238.689 259.254 237.25 262.964 242.459L262.949 242.444Z" fill="#1F1D1D" stroke="#010201" stroke-width="2.21887" stroke-linecap="round" stroke-linejoin="round"/>
<path d="M246.094 230.06C246.094 230.726 246.14 231.453 246.579 231.938C246.988 232.407 247.669 232.559 248.29 232.574C250.228 232.619 252.091 231.695 253.454 230.317C255.892 227.864 259.859 218.506 253.711 218.157C247.593 217.809 245.988 225.653 246.079 230.045L246.094 230.06Z" fill="#1F1D1D" stroke="#010201" stroke-width="2.21887" stroke-linecap="round" stroke-linejoin="round"/>
<path d="M236.826 261.584C236.841 261.841 236.872 262.114 237.038 262.326C237.205 262.538 237.462 262.644 237.72 262.735C239.037 263.189 240.415 263.446 241.808 263.492C242.626 263.522 243.474 263.461 244.186 263.068C244.958 262.629 245.473 261.856 245.897 261.069C246.669 259.63 247.23 258.086 247.563 256.48C247.987 254.436 247.956 252.119 246.624 250.514C244.792 248.318 240.037 247.455 238.098 249.908C236.024 252.558 236.599 258.479 236.841 261.569L236.826 261.584Z" fill="#1F1D1D" stroke="#010201" stroke-width="2.21887" stroke-linecap="round" stroke-linejoin="round"/>
<path d="M220.155 232.813C220.049 234.433 220.155 236.387 221.563 237.189C222.245 237.583 223.108 237.598 223.804 237.962C225.425 238.825 225.5 241.081 225.273 242.898C225.107 244.17 225.213 245.912 226.47 246.154C227.363 246.336 228.15 245.533 228.635 244.746C230.24 242.141 230.755 239.022 231.24 236.008C232.209 229.89 233.178 223.773 233.708 217.609C233.844 216.019 233.92 214.323 233.148 212.93C232.178 211.204 229.998 210.371 228.044 210.704C220.594 211.976 220.533 227.119 220.155 232.813Z" fill="#1F1D1D" stroke="#010201" stroke-width="2.21887" stroke-linecap="round" stroke-linejoin="round"/>
<path d="M246.882 187.901C246.958 188.582 247.003 189.294 246.791 189.945C246.504 190.823 245.777 191.459 245.141 192.141C242.824 194.639 241.643 198.137 241.961 201.529C242.279 204.921 244.081 208.147 246.822 210.176C247.14 210.418 247.503 210.646 247.897 210.63C248.275 210.615 248.608 210.358 248.911 210.131C252.046 207.647 255.135 204.937 257.104 201.438C258.694 198.622 259.481 195.427 260.253 192.277C260.859 189.839 261.45 187.386 262.056 184.948C263.312 179.814 262.601 169.804 254.726 172.5C247.094 175.105 246.155 180.814 246.882 187.901Z" fill="#1F1D1D" stroke="#010201" stroke-width="2.21887" stroke-linecap="round" stroke-linejoin="round"/>
<path d="M225.303 148.284C229.164 148.42 233.147 148.571 236.645 150.207C237.539 150.616 238.447 151.191 238.811 152.115C239.114 152.872 238.977 153.735 238.72 154.523C237.993 156.734 236.312 158.626 235.994 160.943C235.6 163.942 237.614 167.107 236.448 169.908C235.964 171.059 234.995 171.952 233.98 172.679C231.905 174.194 229.437 175.269 226.878 175.39C225.485 175.466 223.94 175.178 223.077 174.088C222.396 173.24 222.29 172.089 221.881 171.074C220.866 168.545 218.186 167.122 216.55 164.941C216.278 164.578 216.035 164.199 215.96 163.76C215.854 163.23 216.005 162.685 216.172 162.155C217.504 157.748 219.473 153.538 221.987 149.692C222.744 149.374 224.47 148.269 225.288 148.299L225.303 148.284Z" fill="#1F1D1D" stroke="#010201" stroke-width="2.21887" stroke-linecap="round" stroke-linejoin="round"/>
<path d="M195.153 162.14C195.123 162.822 195.123 163.579 195.592 164.063C195.925 164.412 196.425 164.533 196.91 164.563C199.454 164.714 201.604 162.731 203.209 160.747C204.39 159.278 205.466 157.718 206.526 156.159C207.404 154.871 208.313 153.554 208.691 152.04C208.858 151.373 208.918 150.677 208.691 150.026C207.555 146.709 198.893 143.726 196.137 146.209C192.715 149.299 195.32 158.036 195.153 162.155V162.14Z" fill="#1F1D1D" stroke="#010201" stroke-width="2.21887" stroke-linecap="round" stroke-linejoin="round"/>
<path d="M190.186 130.235C190.186 130.599 190.186 130.992 190.398 131.295C190.625 131.628 191.049 131.78 191.443 131.901C195.289 133.158 198.954 134.99 202.27 137.307C203.361 138.064 204.436 138.897 205.662 139.397C206.889 139.897 208.343 140.063 209.539 139.488C211.477 138.549 212.098 135.899 211.387 133.87C210.675 131.84 208.964 130.311 207.207 129.069C205.45 127.827 203.542 126.722 202.104 125.117C199.817 122.573 197.955 116.213 193.442 117.833C188.929 119.453 190.171 126.601 190.186 130.25V130.235Z" fill="#1F1D1D" stroke="#010201" stroke-width="2.21887" stroke-linecap="round" stroke-linejoin="round"/>
<path d="M186.339 108.32C186.673 110.516 185.764 112.969 186.9 114.862C187.127 115.256 187.475 115.604 187.899 115.74C188.929 116.028 189.822 114.953 190.14 113.938C190.595 112.53 190.564 110.925 189.883 109.607C189.202 108.29 187.839 107.305 186.355 107.23" fill="#1F1D1D"/>
<path d="M186.339 108.32C186.673 110.516 185.764 112.969 186.9 114.862C187.127 115.256 187.475 115.604 187.899 115.74C188.929 116.028 189.822 114.953 190.14 113.938C190.595 112.53 190.564 110.925 189.883 109.607C189.202 108.29 187.839 107.305 186.355 107.23" stroke="#010201" stroke-width="2.21887" stroke-linecap="round" stroke-linejoin="round"/>
<path d="M228.24 135.838C227.816 136.928 228.437 138.215 229.376 138.912C230.315 139.608 231.511 139.881 232.647 140.123C233.677 140.351 235.085 140.396 235.464 139.396C235.812 138.473 234.903 137.594 234.086 137.034C232.435 135.883 230.633 134.687 228.634 134.763" fill="#1F1D1D"/>
<path d="M228.24 135.838C227.816 136.928 228.437 138.215 229.376 138.912C230.315 139.608 231.511 139.881 232.647 140.123C233.677 140.351 235.085 140.396 235.464 139.396C235.812 138.473 234.903 137.594 234.086 137.034C232.435 135.883 230.633 134.687 228.634 134.763" stroke="#010201" stroke-width="2.21887" stroke-linecap="round" stroke-linejoin="round"/>
<path d="M251.651 106.928C251.863 108.518 252.666 110.108 254.059 110.895C254.938 111.38 255.967 111.516 256.952 111.637C257.164 111.668 257.406 111.683 257.572 111.546C257.739 111.41 257.769 111.183 257.784 110.971C257.981 108.503 257.254 105.974 255.786 103.975C252.742 99.8407 251.152 103.43 251.636 106.928H251.651Z" fill="#1F1D1D" stroke="#010201" stroke-width="2.21887" stroke-linecap="round" stroke-linejoin="round"/>
<path d="M188.444 186.508C189.535 188.174 190.988 189.643 191.685 191.52C191.791 191.808 191.897 192.126 192.154 192.308C192.7 192.671 193.366 192.126 193.79 191.641C194.547 190.763 195.289 189.9 196.046 189.022C197.333 187.523 198.636 186.023 199.923 184.524C201.271 182.964 202.633 181.359 203.375 179.436C205.586 173.667 196.728 175.166 194.199 176.301C190.443 177.997 185.507 182.056 188.429 186.508H188.444Z" fill="#1F1D1D" stroke="#010201" stroke-width="2.21887" stroke-linecap="round" stroke-linejoin="round"/>
<path d="M226.106 274.185C225.591 276.835 224.955 279.47 224.213 282.074C224.046 282.65 223.864 283.24 223.425 283.649C222.168 284.785 220.245 283.498 219.079 282.271C217.459 280.56 215.823 278.849 214.203 277.138C213.613 276.517 213.007 275.881 212.204 275.563C210.69 274.957 208.994 275.684 207.358 275.699C204.996 275.729 202.876 274.291 201.089 272.731C199.984 271.762 198.924 270.717 198.212 269.445C195.653 264.917 197.849 258.921 196.94 253.802C195.925 254.332 194.684 253.62 193.957 252.727C193.23 251.834 192.76 250.728 191.837 250.032C190.338 248.896 188.127 249.244 186.567 250.289C185.007 251.334 183.932 252.939 182.781 254.423C181.237 256.422 178.617 258.421 176.451 257.149C174.271 255.877 174.755 252.636 175.528 250.228C177.012 245.61 178.496 240.991 179.98 236.372C180.691 234.146 181.494 231.799 183.311 230.33C183.402 232.148 183.508 233.965 183.599 235.782C183.644 236.721 184.068 237.978 184.992 237.811C185.779 237.675 185.931 236.63 186.007 235.842C186.325 232.481 188.854 229.422 192.094 228.483C190.686 227.241 188.869 226.56 187.385 225.394C184.886 223.425 183.584 220.245 183.235 217.08C182.887 213.915 183.372 210.735 183.871 207.585C184.659 207.419 186.915 206.283 187.46 206.874C187.733 207.176 187.839 207.585 188.021 207.949C188.884 209.66 191.246 209.857 193.154 209.675C195.062 209.493 197.288 209.266 198.621 210.644C199.317 211.371 199.605 212.401 199.847 213.385C200.362 215.49 200.801 217.716 200.196 219.791C199.666 221.623 198.379 223.122 197.44 224.773C196.425 226.575 195.789 228.589 195.623 230.648C195.517 231.875 195.744 233.389 196.864 233.889C197.773 234.298 198.833 233.844 199.62 233.253C200.907 232.269 201.861 230.86 202.301 229.301C202.573 228.347 202.664 227.317 203.224 226.499C203.785 225.681 205.102 225.273 205.753 226.015C205.102 229.195 206.389 232.496 207.692 235.464C211.553 244.323 215.415 253.166 219.276 262.025C220.139 263.993 220.987 265.962 222.032 267.825C223.274 270.036 224.591 272.11 226.075 274.155L226.106 274.185Z" fill="#1F1D1D" stroke="#010201" stroke-width="2.21887" stroke-linecap="round" stroke-linejoin="round"/>
<path d="M307.272 274.399C308.287 278.079 306.863 282.319 303.82 284.636C303.426 284.166 303.017 283.712 302.623 283.242C298.944 284.802 295.764 287.513 293.643 290.89C292.341 292.964 291.296 295.417 289.116 296.523C285.618 298.31 281.605 295.645 277.773 294.812C274.139 294.024 270.157 294.993 267.31 297.386C265.326 299.052 263.918 301.308 261.979 303.034C261.358 303.595 260.647 304.11 259.814 304.2C259.193 304.276 258.572 304.11 257.981 303.898C254.483 302.686 251.424 300.066 247.73 299.854C245.776 299.733 243.853 300.324 241.915 300.506C239.976 300.687 237.78 300.4 236.493 298.931C235.585 297.886 235.297 296.432 235.221 295.039C234.843 287.558 240.461 280.199 247.775 278.609C258.814 276.201 270.611 277.276 281.908 277.291C284.891 277.291 287.874 277.291 290.842 276.928C296.188 276.231 301.881 274.187 307.272 274.384V274.399Z" fill="#1F1D1D" stroke="#010201" stroke-width="2.21887" stroke-linecap="round" stroke-linejoin="round"/>
<path d="M281.166 328.337C278.547 331.229 275.791 334.076 272.444 336.075C271.293 336.756 270.036 337.347 268.689 337.332C266.75 337.316 265.069 336.029 263.176 335.605C258.997 334.651 255.166 337.877 251.683 340.375C246.277 344.252 239.962 346.841 233.39 347.856C232.436 348.007 231.361 348.098 230.588 347.508C229.771 346.887 229.604 345.751 229.483 344.737C229.271 342.859 229.104 340.814 230.149 339.255C230.967 338.013 232.36 337.316 233.738 336.741C237.145 335.302 240.719 334.257 244.369 333.652C245.52 333.455 246.776 333.319 247.836 333.818C248.836 334.288 249.487 335.257 250.305 335.999C251.123 336.741 252.349 337.286 253.303 336.726C254.863 335.802 253.909 333.379 254.348 331.623C254.908 329.366 257.785 328.412 258.649 326.247C259.224 324.808 258.77 323.188 258.861 321.643C259.042 318.433 261.632 315.768 264.6 314.511C267.568 313.254 270.869 313.148 274.079 313.057C275.079 313.027 276.169 313.027 276.957 313.648C278.229 314.647 277.971 316.631 277.426 318.16C276.457 320.856 274.943 323.339 273.004 325.429C272.005 326.504 270.869 327.519 270.309 328.867C269.749 330.214 269.961 332.047 271.248 332.773C271.808 333.091 272.474 333.137 273.11 333.091C277.532 332.728 280.152 328.155 282.287 324.278C284.816 319.69 287.739 315.313 290.994 311.21C293.054 308.62 297.354 301.806 300.837 301.579C296.885 311.21 288.132 320.659 281.212 328.337H281.166Z" fill="#1F1D1D" stroke="#010201" stroke-width="2.21887" stroke-linecap="round" stroke-linejoin="round"/>
<path d="M194.562 344.19C194.925 344.947 195.455 345.629 195.698 346.446C196.515 349.218 193.593 352.201 194.698 354.881C195.41 356.607 197.5 357.319 199.362 357.365C204.36 357.486 208.812 354.412 212.855 351.474C213.188 351.232 213.551 350.914 213.506 350.505C213.491 350.308 213.37 350.141 213.249 349.99C211.84 348.127 209.781 346.78 207.525 346.219C207.222 346.144 206.889 346.068 206.692 345.825C206.495 345.568 206.495 345.205 206.525 344.871C206.722 342.1 206.919 339.329 207.116 336.543C207.146 336.149 207.176 335.74 207.04 335.377C206.767 334.635 205.934 334.271 205.162 334.074C198.832 332.484 191.17 337.073 194.562 344.19Z" fill="#1F1D1D" stroke="#010201" stroke-width="2.21887" stroke-linecap="round" stroke-linejoin="round"/>
<path d="M221.957 322.443C224.258 322.201 226.636 322.579 228.756 323.503C229.574 323.866 230.437 324.396 230.694 325.259C231.027 326.395 230.164 327.516 229.331 328.364C227.151 330.56 224.682 332.543 221.82 333.724C218.958 334.906 215.672 335.239 212.75 334.209C212.538 334.133 212.311 334.042 212.159 333.876C211.977 333.664 211.917 333.376 211.887 333.104C211.675 331.226 212.25 329.363 212.825 327.561C213.022 326.94 213.219 326.319 213.583 325.774C214.461 324.472 216.096 323.912 217.641 323.624C218.761 323.427 220.806 322.564 221.942 322.443H221.957Z" fill="#1F1D1D" stroke="#010201" stroke-width="2.21887" stroke-linecap="round" stroke-linejoin="round"/>
<path d="M175.558 329.759C175.558 329.971 175.588 330.198 175.74 330.35C175.891 330.501 176.118 330.516 176.33 330.531C176.997 330.562 177.663 330.577 178.344 330.592C178.889 330.592 179.45 330.592 179.919 330.319C180.313 330.092 180.601 329.714 180.858 329.335C183.039 326.019 183.22 321.809 183.054 317.857C183.008 316.903 182.948 315.918 182.584 315.025C181.025 311.3 175.967 309.361 175.285 314.419C174.604 319.477 175.376 324.853 175.573 329.759H175.558Z" fill="#1F1D1D" stroke="#010201" stroke-width="2.21887" stroke-linecap="round" stroke-linejoin="round"/>
<path d="M158.794 323.023C158.825 323.795 159.188 324.809 159.96 324.688C160.278 324.643 160.521 324.385 160.733 324.158C162.429 322.265 163.882 320.161 165.063 317.919C165.381 317.329 165.836 316.617 166.502 316.693C166.972 316.738 167.29 317.162 167.729 317.344C168.365 317.616 169.137 317.283 169.591 316.753C170.046 316.223 170.227 315.512 170.394 314.845C171.575 309.954 172.15 304.624 171.56 299.611C171.136 296.053 168.895 293.963 166.275 297.234C163.852 300.262 162.656 304.805 161.429 308.425C159.839 313.119 158.567 318.025 158.809 323.038L158.794 323.023Z" fill="#1F1D1D" stroke="#010201" stroke-width="2.21887" stroke-linecap="round" stroke-linejoin="round"/>
<path d="M177.587 273.472C175.876 275.304 174.059 277.379 173.998 279.893C173.998 280.286 174.044 280.725 174.301 281.028C174.498 281.271 174.786 281.392 175.058 281.558C176.512 282.376 177.466 284.042 177.451 285.708C177.436 287.01 177.027 288.645 178.117 289.342C179.147 290.008 180.464 289.084 181.206 288.1C183.311 285.253 183.887 281.71 184.72 278.363C185.128 276.682 185.537 274.986 186.249 273.396C186.961 271.806 188.566 270.549 189.066 269.035C190.08 266.021 187.733 265.749 185.401 266.612C182.13 267.824 179.889 271.019 177.602 273.457L177.587 273.472Z" fill="#1F1D1D" stroke="#010201" stroke-width="2.21887" stroke-linecap="round" stroke-linejoin="round"/>
<path d="M160.521 357.576C160.521 358.439 160.521 359.348 160.945 360.105C161.581 361.256 162.959 361.755 164.231 362.104C166.018 362.604 167.987 362.997 169.683 362.24C170.985 361.665 171.954 360.468 172.499 359.136C173.045 357.803 173.211 356.365 173.287 354.941C173.363 353.518 173.317 352.049 172.802 350.716C171.697 347.884 165.806 342.963 162.52 344.25C158.901 345.674 160.536 354.502 160.536 357.561L160.521 357.576Z" fill="#1F1D1D" stroke="#010201" stroke-width="2.21887" stroke-linecap="round" stroke-linejoin="round"/>
<path d="M156.507 377.791C157.658 377.988 158.854 378.049 159.945 377.64C165.563 375.459 162.716 364.39 156.734 365.222C150.359 366.116 150.283 376.746 156.507 377.806V377.791Z" fill="#1F1D1D" stroke="#010201" stroke-width="2.21887" stroke-linecap="round" stroke-linejoin="round"/>
<path d="M136.882 387.938C136.73 388.529 136.609 389.18 136.912 389.695C137.17 390.134 137.654 390.376 138.018 390.725C139.396 392.118 138.381 394.919 139.926 396.116C140.592 396.631 141.546 396.631 142.333 396.297C143.121 395.964 143.727 395.359 144.257 394.707C147.452 390.831 148.603 384.001 145.362 379.776C140.41 373.265 137.745 384.471 136.882 387.938Z" fill="#1F1D1D" stroke="#010201" stroke-width="2.21887" stroke-linecap="round" stroke-linejoin="round"/>
<path d="M148.633 347.748C148.118 348.687 147.542 349.596 147.118 350.58C146.649 351.67 146.376 352.836 146.104 353.987C145.316 357.364 144.529 360.741 143.757 364.133C144.377 364.557 145.256 364.421 145.861 363.997C146.467 363.573 146.906 362.922 147.285 362.286C149.223 359.105 150.859 355.759 152.358 352.352C153.524 349.717 154.599 347.006 155.008 344.159C155.22 342.645 155.538 335.301 152.434 337.678C151.54 338.359 151.192 341.691 150.798 342.781C150.192 344.492 149.496 346.158 148.618 347.748H148.633Z" fill="#1F1D1D" stroke="#010201" stroke-width="2.21887" stroke-linecap="round" stroke-linejoin="round"/>
<path d="M195.274 384.911C195.274 385.138 195.274 385.395 195.41 385.577C195.562 385.774 195.819 385.834 196.062 385.88C197.652 386.183 199.287 386.501 200.877 386.183C203.043 385.743 204.799 384.184 206.389 382.624C207.979 381.064 213.188 376.991 211.856 374.326C210.962 372.524 206.419 371.887 204.633 372.175C202.119 372.584 199.923 374.462 197.985 375.976C194.805 378.475 195.41 381.049 195.289 384.926L195.274 384.911Z" fill="#1F1D1D" stroke="#010201" stroke-width="2.21887" stroke-linecap="round" stroke-linejoin="round"/>
<path d="M138.473 429.946C137.852 430.476 137.519 431.279 137.216 432.036C135.686 435.883 134.157 439.729 132.612 443.575C131.582 446.15 130.553 448.739 130.038 451.465C129.311 455.251 129.599 459.218 130.856 462.852C131.264 464.018 131.825 465.215 132.87 465.836C134.52 466.82 136.746 465.942 137.927 464.442C139.109 462.943 139.487 460.975 139.835 459.097C140.774 453.994 141.698 448.89 142.637 443.772C144.924 445.847 146.074 449.678 149.148 449.996C150.738 450.163 152.238 449.224 153.358 448.088C155.796 445.65 157.083 441.667 155.357 438.684C154.842 437.791 154.085 437.033 153.661 436.079C152.268 432.899 155.206 429.447 155.221 425.979C155.236 421.421 147.937 416.984 145.529 422.057C144.621 423.98 144.969 426.418 144.106 428.417C141.88 433.551 141.092 427.705 138.473 429.946Z" fill="#1F1D1D" stroke="#010201" stroke-width="2.21887" stroke-linecap="round" stroke-linejoin="round"/>
<path d="M146.906 471.817C145.877 475.663 145.453 479.676 145.665 483.659C145.725 484.749 145.831 485.87 146.376 486.824C146.755 487.505 147.33 488.051 147.921 488.55C149.148 489.61 150.723 490.61 152.313 490.246C153.509 489.974 154.402 488.959 154.887 487.823C155.371 486.688 155.462 485.461 155.553 484.234C156.81 484.113 158.249 484.704 159.506 484.749C161.186 484.81 162.776 483.81 163.791 482.463C164.806 481.115 165.32 479.48 165.684 477.829C166.608 473.619 166.593 469.228 165.639 465.033C165.426 464.109 164.987 463.019 164.048 462.913C163.428 462.837 162.867 463.246 162.398 463.64C159.415 466.123 156.961 469.243 155.235 472.726C153.706 472.362 152.191 472.196 150.662 471.832C150.071 471.696 147.073 471.227 146.922 471.802L146.906 471.817Z" fill="#1F1D1D" stroke="#010201" stroke-width="2.21887" stroke-linecap="round" stroke-linejoin="round"/>
<path d="M163.866 510.824C163.866 511.687 163.897 512.566 164.2 513.368C164.502 514.171 165.138 514.898 165.986 515.064C167.031 515.261 168.046 514.549 168.773 513.762C170.923 511.46 171.907 508.22 171.862 505.07C171.817 501.36 169.273 490.956 164.79 497.468C162.594 500.663 163.806 507.235 163.866 510.809V510.824Z" fill="#1F1D1D" stroke="#010201" stroke-width="2.21887" stroke-linecap="round" stroke-linejoin="round"/>
<path d="M145.983 532.494C142.425 536.734 140.653 542.428 141.198 547.94C143.727 548.667 146.332 546.865 147.876 544.745C148.815 543.458 149.648 541.928 151.117 541.338C152.025 540.974 153.055 541.02 153.979 540.687C156.281 539.854 157.113 537.037 157.386 534.599C157.462 533.887 157.507 533.145 157.174 532.509C156.917 532.01 156.432 531.646 155.963 531.343C153.721 529.905 151.011 529.208 148.361 529.375" fill="#1F1D1D"/>
<path d="M145.983 532.494C142.425 536.734 140.653 542.428 141.198 547.94C143.727 548.667 146.332 546.865 147.876 544.745C148.815 543.458 149.648 541.928 151.117 541.338C152.025 540.974 153.055 541.02 153.979 540.687C156.281 539.854 157.113 537.037 157.386 534.599C157.462 533.887 157.507 533.145 157.174 532.509C156.917 532.01 156.432 531.646 155.963 531.343C153.721 529.905 151.011 529.208 148.361 529.375" stroke="#010201" stroke-width="2.21887" stroke-linecap="round" stroke-linejoin="round"/>
<path d="M183.144 576.408C182.932 576.787 182.705 577.226 182.841 577.635C182.962 577.998 183.326 578.21 183.659 578.377C186.945 580.133 190.897 581.481 194.335 580.027C197.696 578.604 199.453 574.969 200.922 571.638C202.315 568.503 203.693 565.354 205.086 562.219C206.298 559.463 208.524 554.299 205.495 551.846C203.208 549.998 200.074 552.028 198.242 553.587C191.76 559.13 187.369 569.109 183.144 576.408Z" fill="#1F1D1D" stroke="#010201" stroke-width="2.21887" stroke-linecap="round" stroke-linejoin="round"/>
<path d="M122.602 598.835C122.602 601.849 123.617 604.771 124.768 607.557C124.828 607.709 124.904 607.875 125.055 607.966C125.343 608.133 125.691 607.86 125.919 607.603C129.311 603.772 131.991 599.32 133.808 594.534C134.929 591.597 138.094 583.889 135.974 581.012C130.734 573.879 122.587 595.276 122.602 598.835Z" fill="#1F1D1D" stroke="#010201" stroke-width="2.21887" stroke-linecap="round" stroke-linejoin="round"/>
<path d="M199.438 622.581C199.802 619.128 199.877 615.63 199.635 612.162C199.574 611.239 199.468 610.269 198.954 609.497C196.818 606.332 191.867 607.725 192.457 611.663C193.048 615.6 196.591 619.931 199.438 622.581Z" fill="#1F1D1D" stroke="#010201" stroke-width="2.21887" stroke-linecap="round" stroke-linejoin="round"/>
<path d="M220.624 641.281C220.685 640.494 220.746 639.706 220.806 638.919C220.852 638.358 220.897 637.798 220.942 637.238C220.973 636.783 221.018 636.329 220.912 635.89C220.806 635.436 220.549 635.027 220.261 634.663C218.747 632.649 216.975 632.165 216.536 635.027C216.051 638.116 220.746 639.661 220.624 641.296V641.281Z" fill="#1F1D1D" stroke="#010201" stroke-width="2.21887" stroke-linecap="round" stroke-linejoin="round"/>
<path d="M228.907 460.352C226.484 463.245 224.788 466.894 224.894 470.665C224.97 473.133 225.803 475.511 226.62 477.843C228.862 484.157 231.088 490.472 233.329 496.787C234.313 499.558 235.297 502.344 236.691 504.934C237.705 506.812 239.401 508.81 241.506 508.508C243.535 508.205 244.58 505.979 245.292 504.055C246.685 500.27 248.078 496.484 249.456 492.683C250.213 490.639 250.971 488.519 250.895 486.338C250.834 484.703 250.319 483.112 249.774 481.553C247.245 474.208 244.383 466.97 241.218 459.868C237.569 451.721 234.465 453.674 228.877 460.337L228.907 460.352Z" fill="#1F1D1D" stroke="#010201" stroke-width="2.21887" stroke-linecap="round" stroke-linejoin="round"/>
<path d="M196.819 417.424C196.046 422.255 195.683 428.146 199.62 431.053C202.103 432.885 205.465 432.795 208.554 432.628C209.084 432.598 209.66 432.552 210.084 432.249C210.523 431.931 210.735 431.386 210.902 430.871C212.113 427.177 212.355 422.891 210.311 419.59C208.267 416.289 203.406 414.623 200.271 416.94" fill="#1F1D1D"/>
<path d="M196.819 417.424C196.046 422.255 195.683 428.146 199.62 431.053C202.103 432.885 205.465 432.795 208.554 432.628C209.084 432.598 209.66 432.552 210.084 432.249C210.523 431.931 210.735 431.386 210.902 430.871C212.113 427.177 212.355 422.891 210.311 419.59C208.267 416.289 203.406 414.623 200.271 416.94" stroke="#010201" stroke-width="2.21887" stroke-linecap="round" stroke-linejoin="round"/>
<path d="M182.629 488.989C185.93 488.959 189.247 488.913 192.548 488.883C193.002 488.883 193.487 488.868 193.835 488.58C194.274 488.247 194.35 487.626 194.411 487.081C194.653 484.643 194.865 482.099 193.881 479.858C193.366 478.722 192.578 477.738 192.003 476.632C189.792 472.286 191.473 467.047 191.049 462.201C190.958 461.201 190.761 460.172 190.14 459.384C189.398 458.445 188.172 458.037 187.066 457.582C182.629 455.75 178.904 452.282 176.754 447.997C177.132 452.782 176.436 459.551 177.269 464.275C177.844 467.486 179.192 470.499 180.206 473.604C181.811 478.495 182.735 483.856 182.629 489.004V488.989Z" fill="#1F1D1D" stroke="#010201" stroke-width="2.21887" stroke-linecap="round" stroke-linejoin="round"/>
<path d="M359.062 322.174C360.743 328.307 361.243 334.742 360.531 341.057" stroke="#010201" stroke-width="2.21887" stroke-linecap="round" stroke-linejoin="round"/>
<path d="M367.406 324.021C367.83 328.746 368.011 333.501 367.936 338.256" stroke="#010201" stroke-width="2.21887" stroke-linecap="round" stroke-linejoin="round"/>
<path d="M237.281 638.192C239.795 637.45 242.612 637.844 244.838 639.222C246.928 640.524 248.427 642.614 249.335 644.901" stroke="#010201" stroke-width="2.21887" stroke-linecap="round" stroke-linejoin="round"/>
<path d="M243.066 632.171C244.929 632.368 246.897 631.792 248.624 632.519C249.926 633.064 250.834 634.276 251.652 635.427C252.636 636.805 253.621 638.183 254.59 639.576" stroke="#010201" stroke-width="2.21887" stroke-linecap="round" stroke-linejoin="round"/>
<path d="M122.496 663.304C125.01 660.078 129.311 658.67 133.384 658.685C136.322 658.685 139.26 659.351 141.925 660.608" stroke="#010201" stroke-width="2.21887" stroke-linecap="round" stroke-linejoin="round"/>
<path d="M127.6 671.25C128.478 671.583 128.872 672.582 129.129 673.476C130.023 676.52 130.553 679.684 130.719 682.849" stroke="#010201" stroke-width="2.21887" stroke-linecap="round" stroke-linejoin="round"/>
<path d="M138.154 670.628C139.532 673.748 140.486 677.049 141.001 680.426" stroke="#010201" stroke-width="2.21887" stroke-linecap="round" stroke-linejoin="round"/>
<path d="M349.613 298.381C345.569 303.484 343.192 309.89 342.904 316.401C342.617 322.913 344.434 329.485 348.007 334.936" stroke="#010201" stroke-width="2.21887" stroke-linecap="round" stroke-linejoin="round"/>
<path d="M293.962 37.8491C290.57 36.6376 286.769 37.3948 283.483 38.894C280.196 40.3931 277.319 42.5737 274.215 44.4061C268.688 47.677 262.555 49.7819 256.407 51.6293C252.545 52.7802 248.608 53.8857 245.231 56.0814C243.883 56.9597 242.596 58.0652 241.93 59.534C241.264 61.0029 241.4 62.9261 242.566 64.0315C243.368 64.7887 244.489 65.0764 245.564 65.3187C250.561 66.4999 255.619 67.681 260.753 67.5296C273.518 67.1662 284.845 58.686 297.566 57.52C298.202 57.4594 298.883 57.4291 299.413 57.7926C299.852 58.0954 300.11 58.5952 300.307 59.0949C301.609 62.4264 301.503 66.2727 299.989 69.5134" stroke="#1F1D1D" stroke-width="2.21887" stroke-linecap="round" stroke-linejoin="round"/>
</svg>
