<svg width="259" height="238" viewBox="0 0 259 238" fill="none" xmlns="http://www.w3.org/2000/svg">
<path d="M74.7113 43.4479C80.5696 45.621 87.84 43.4679 92.8472 47.1933C94.119 48.1346 95.1304 49.4165 95.7714 50.8685C96.0618 51.5295 96.2721 52.2805 96.0017 52.9515C95.8715 53.272 95.6512 53.5323 95.4309 53.7927C93.448 56.1461 91.4351 58.5095 88.9916 60.3721C86.6884 62.1246 84.0246 63.4165 81.9316 65.4193C79.8386 67.4222 78.3765 70.4966 79.3779 73.2205C86.9988 76.9358 96.1018 75.0732 104.153 72.4194C108.319 71.0474 112.445 69.4651 116.191 67.1919C119.355 65.2691 122.209 62.8657 124.823 60.252C126.836 58.2391 128.729 56.0559 129.95 53.4923C131.172 50.9286 131.663 47.9143 130.801 45.2104C129.249 40.3735 124.002 37.8299 119.135 36.3678C110.913 33.9143 102.301 33.023 93.7385 33.0631C89.4223 33.0831 85.1061 33.3334 80.7999 33.724C77.8357 33.9944 71.4666 33.5337 69.3236 35.9572C66.5596 39.0816 72.2377 42.5266 74.7113 43.4479Z" fill="#EEA5A4"/>
<path d="M251.134 121.283C251.504 122.705 252.055 124.077 252.766 125.359C253.117 125.99 253.507 126.6 253.787 127.261C254.418 128.733 254.518 130.376 254.909 131.928C255.29 133.45 255.93 134.882 256.411 136.374C258.454 142.703 258.244 149.774 257.353 156.373C256.642 161.61 255.62 166.808 254.278 171.925C253.777 173.838 253.227 175.751 252.425 177.563C251.664 179.276 250.683 180.898 249.461 182.32C248.59 183.332 247.619 184.233 246.717 185.214C245.606 186.436 244.624 187.778 243.483 188.97C238.906 193.716 232.167 195.599 225.727 197.011C222.092 197.802 218.677 197.201 215.252 198.683C210.876 200.576 207.131 203.631 203.445 206.645C200.531 209.028 197.607 211.422 194.953 214.086C191.969 217.08 189.325 220.435 185.98 223.028C183.367 225.061 180.382 226.583 177.298 227.775C170.518 230.389 162.897 228.927 155.917 230.92C148.937 232.912 141.507 231.671 134.457 230.028C127.407 228.386 120.296 226.333 113.066 226.744C110.092 226.914 107.148 227.495 104.233 228.126C94.9702 230.149 85.8271 232.722 76.8743 235.827C73.119 237.129 69.1032 238.551 65.2477 237.569C64.2563 237.319 63.2849 236.888 62.5338 236.197C60.7613 234.545 60.611 231.841 60.581 229.417C60.561 227.975 60.581 226.443 61.3521 225.221C61.8629 224.42 62.664 223.84 63.4752 223.339C73.4895 217.11 86.5782 219.493 97.7943 215.858C102.06 214.476 106.076 212.213 110.512 211.532C114.068 210.991 117.683 211.502 121.278 211.502C124.873 211.502 128.688 210.911 131.412 208.568C133.455 206.805 134.937 204.061 137.591 203.52C139.183 203.2 140.916 203.781 142.418 203.16C141.777 200.045 140.936 196.851 139.584 193.977C138.392 193.516 137.09 193.476 135.819 193.326C133.485 193.055 131.182 192.425 129.039 191.473C127.657 190.852 126.565 190.442 125.063 190.522C123.521 193.055 122.94 196.07 121.538 198.694C117.983 205.363 109.731 208.307 102.181 208.097C100.037 208.037 97.7142 207.686 96.2421 206.134C94.2793 204.061 94.6398 200.596 96.172 198.193C97.7042 195.789 100.138 194.127 102.331 192.304C107.418 188.098 111.474 182.811 115.49 177.573C117.092 175.48 118.704 173.377 119.936 171.044C121.729 167.659 123.06 163.233 126.055 160.849C120.947 156.713 115.66 152.788 110.232 149.083C106.677 146.659 102.531 144.356 98.285 145.037C91.345 146.148 84.2849 144.306 77.6254 142.032C70.9659 139.759 64.3865 137.015 57.3965 136.264C54.1418 135.914 50.8471 135.994 47.6325 135.373C44.4179 134.752 41.1933 133.28 39.3807 130.566C37.5981 127.902 37.498 124.217 39.1203 121.453C40.7426 118.689 45.2691 117.047 48.4436 117.487C60.7412 119.18 72.3578 123.967 84.355 127.161C86.9487 127.852 89.5825 128.473 92.2664 128.593C95.3608 128.733 98.4452 128.203 101.5 127.682C110.022 126.22 118.544 124.758 127.076 123.296C131.162 122.595 136.42 122.535 140.345 123.846C140.255 117.618 140.425 111.389 140.856 105.17C140.956 103.688 141.096 102.145 141.847 100.864C143.139 98.6904 146.063 97.5488 146.584 95.0753C146.965 93.2827 145.893 91.5302 144.711 90.1282C139.834 84.3199 132.494 81.0152 125.043 79.6031C117.593 78.1911 108.81 75.2469 102.231 79.0123C100.228 80.1539 98.1347 81.1754 95.8915 81.7262C89.1218 83.4086 82.0818 80.1639 78.4466 74.2054C85.697 70.2297 93.0274 66.224 101.009 64.0309C104.113 63.1796 107.318 62.5988 110.282 61.337C112.325 60.4657 114.228 59.2941 116.11 58.1224C118.163 56.8506 120.316 55.4786 121.498 53.3756C122.83 51.0022 122.66 47.8677 121.068 45.6646C119.796 43.882 117.793 42.7905 115.87 41.759C114.488 41.0179 112.946 40.3069 111.394 40.5773C107.678 39.0151 103.583 38.3842 99.5768 38.7547C98.0146 38.9049 96.4724 39.1953 94.9202 39.3756C93.1577 39.5859 91.3751 39.636 89.6026 39.696C85.6769 39.8262 81.7513 39.9564 77.8157 40.0866C75.6826 40.1567 73.4595 40.2068 71.5167 39.3255C69.8643 38.5644 68.5324 37.1324 67.8915 35.4299C67.4108 34.1381 67.3307 32.7361 67.2706 31.3641C67.1003 27.1381 67.2305 23.1924 67.2906 18.9664C79.8185 19.1066 95.491 18.0351 107.939 16.6331C111.043 13.9993 113.607 12.1767 117.292 10.4442C123.811 7.38983 129.67 8.7017 136.82 9.55291C143.97 10.4041 150.41 15.3913 157.149 17.9349C159.262 17.5043 161.485 11.9664 163.258 10.7346C165.121 9.43273 166.883 11.5057 168.926 10.4943C173.863 8.07079 179.812 10.1337 185.149 8.8519C189.596 7.78036 192.59 4.78609 197.166 4.79611C197.707 4.79611 199.009 0.820423 199.4 1.20097C199.98 1.7818 199.97 2.80327 199.59 3.5243C196.165 10.0336 194.693 11.4556 189.445 15.7117C189.906 17.1938 184.518 20.5386 183.517 21.7203C182.515 22.902 182.516 23.583 181.174 24.3741C180.072 25.015 178.76 26.6975 177.659 27.3384C175.836 28.4099 175.035 30.9135 174.073 32.7962C181.965 43.7118 195.815 51.0022 206.049 59.7648C208.973 62.2683 211.747 64.9622 214.501 67.646C220.75 73.7247 227.019 79.8234 232.457 86.6332C240.268 96.4272 247.929 109.215 251.124 121.333L251.134 121.283Z" fill="white"/>
<path d="M174.574 33.4148C171.981 39.1029 168.746 45.2417 162.898 47.4449C159.152 48.8569 154.986 48.3662 151.021 48.8869C146.184 49.5278 141.367 51.701 136.61 50.6194C132.865 49.7682 129.84 47.0143 127.497 43.9799C125.154 40.9456 123.311 37.5307 120.848 34.5965C116.161 29.0285 109.561 22.2889 103.643 18.0528C103.383 17.8725 103.102 17.6222 103.132 17.3118C103.152 17.0614 103.323 16.781 103.573 16.7209C108.901 15.5693 110.613 14.5278 114.138 11.8139C116.662 9.87112 120.697 8.10858 123.832 7.53776C129.59 6.49627 135.469 8.01846 141.117 9.52061L149.208 11.6737C151.201 12.2044 153.074 13.0857 154.906 14.0471C160.835 17.1816 161.766 2.25021 183.407 5.5249C185.821 5.88542 188.124 3.512 190.517 3.00127C192.781 2.52058 195.865 0.467648 198.098 0.65792C199.24 0.758064 200.071 1.76951 199.981 2.91114C199.64 7.28741 196.256 13.6866 192.53 16.0399C190.627 17.2417 188.424 18.0028 186.752 19.5149C183.948 22.0586 182.966 26.4749 179.572 28.1673C178.73 28.5879 177.779 28.8082 176.998 29.3189C175.526 30.2903 175.326 31.7925 174.595 33.3948L174.574 33.4148Z" fill="#C8823C"/>
<path d="M95.5312 47.7848C90.6242 45.0208 84.5054 46.8034 79.1778 48.646C71.0962 51.44 63.0247 54.224 54.9431 57.018C52.6198 57.8191 50.3065 58.6203 47.9832 59.4315C40.182 62.1553 32.4109 64.9594 24.6698 67.8435C20.9345 69.2355 16.7485 71.1282 15.6169 74.9436C13.7041 75.6446 11.1204 75.9751 9.20768 76.6761C7.2649 77.3871 5.28209 78.1182 3.66979 79.42C2.05748 80.7219 0.845722 82.6947 1.01597 84.7577C1.23628 87.4115 3.69977 89.4444 6.3035 90.0252C8.90722 90.606 11.6111 90.0453 14.1948 89.4143C22.5568 87.3915 30.7385 84.7076 38.9102 82.0338C43.8272 80.4215 48.7543 78.8092 53.6713 77.1969C63.4854 73.9823 73.3194 70.7577 82.7529 66.5416C91.906 62.4558 100.628 57.4787 109.331 52.5016C111.123 51.4801 112.926 50.4386 114.418 49.0166C115.54 47.945 116.511 46.513 116.421 44.9607C116.301 43.038 114.528 41.5258 112.646 41.1353C110.763 40.7447 108.81 41.2254 106.978 41.8363C103.302 43.058 98.7258 45.5917 95.5312 47.7748V47.7848Z" fill="#1F1D1D" stroke="#1F1D1D" stroke-width="1.57688" stroke-miterlimit="10" stroke-linecap="round"/>
<path d="M68.3023 36.3203C69.0134 38.7538 71.9976 39.585 74.5213 39.8453C84.0849 40.8368 93.7187 39.3546 103.322 39.5549C108.41 39.6651 113.697 40.316 117.963 43.09C120.687 44.8625 123.011 47.9469 122.4 51.1415C121.909 53.7252 119.686 55.5979 117.473 57.0299C105.906 64.5507 91.4655 66.2631 79.3181 72.7925" stroke="#1F1D1D" stroke-width="1.57688" stroke-miterlimit="10" stroke-linecap="round"/>
<path d="M126.215 19.9749C121.368 20.005 116.521 19.0236 112.074 17.1008C111.634 18.603 112.535 20.4256 113.997 20.9964C114.608 21.2367 115.269 21.2868 115.93 21.2668C119.084 21.2067 123.07 19.8247 126.225 19.9649L126.215 19.9749Z" fill="#1F1D1D" stroke="#1F1D1D" stroke-width="1.57688" stroke-miterlimit="10" stroke-linecap="round"/>
<path d="M66.75 31.3633C66.9503 32.0343 67.2507 32.7653 67.9016 33.0157C68.7128 33.3261 69.564 32.7052 70.2149 32.1244C71.4968 30.9627 72.7586 29.761 73.9803 28.5393C74.6313 27.8883 75.2922 27.1973 75.6026 26.3261C76.2436 24.4835 75.0619 22.4505 73.5097 21.2789C71.9374 20.0872 67.1005 18.1143 65.7786 20.5979C65.0876 21.8998 65.4782 24.133 65.6084 25.525C65.7886 27.5078 66.1692 29.4706 66.75 31.3633Z" fill="#1F1D1D" stroke="#1F1D1D" stroke-width="1.57688" stroke-miterlimit="10" stroke-linecap="round"/>
<path d="M169.307 27.9272C170.429 25.8743 172.592 24.4222 174.925 24.1618C175.716 24.0717 176.517 24.1217 177.288 23.9515C179.121 23.571 180.543 22.0988 181.544 20.5066C182.035 19.7255 182.476 18.8842 183.157 18.2533C184.108 17.3821 185.4 17.0416 186.562 16.4808C189.015 15.2991 190.928 13.0359 191.669 10.4121" stroke="#1F1D1D" stroke-width="1.57688" stroke-miterlimit="10" stroke-linecap="round"/>
<path d="M181.444 137.304C181.264 139.237 179.812 140.779 178.39 142.101C172.922 147.178 166.613 151.354 159.803 154.409C156.629 155.831 153.324 157.032 150.38 158.895C145.954 161.699 142.579 165.855 138.533 169.19C134.067 172.865 128.839 175.489 124.293 179.064C122.891 180.165 121.519 181.397 120.747 183.01C119.976 184.622 119.926 186.685 121.048 188.067C121.729 188.908 122.75 189.409 123.742 189.859C128.789 192.153 134.277 193.975 139.785 193.334C145.293 192.693 150.75 189.018 151.962 183.61C165.962 176.21 180.974 170.111 196.165 165.655C198.649 164.924 201.273 164.173 203.085 162.33C205.559 159.826 205.939 156.001 207.111 152.676C209.174 146.878 213.811 142.462 217.826 137.785C221.842 133.108 225.497 127.41 224.886 121.281" stroke="#1F1D1D" stroke-width="1.57688" stroke-miterlimit="10" stroke-linecap="round"/>
<path d="M141.106 105.428C140.976 113.16 140.846 120.901 140.716 128.632C140.675 130.855 140.635 133.098 140.015 135.231C138.873 139.167 135.909 142.261 133.635 145.676C131.192 149.341 129.51 153.437 127.627 157.413C120.497 172.464 110.282 186.054 97.7942 197.08C96.7627 197.991 95.6811 198.932 95.1504 200.204C93.9987 202.988 96.1218 206.283 98.9158 207.424C101.71 208.566 104.884 208.105 107.828 207.474C113.847 206.193 120.687 203.238 121.869 197.2C122.309 194.927 122.99 192.783 124.472 190.991" stroke="#1F1D1D" stroke-width="1.57688" stroke-miterlimit="10" stroke-linecap="round"/>
<path d="M181.615 197.829C189.947 198.58 198.309 198.931 206.67 198.871C214.051 198.821 221.502 198.44 228.622 196.487C235.742 194.545 242.572 190.909 247.299 185.251C251.264 180.505 253.568 174.586 255.15 168.608C259.256 153.105 258.705 135.911 251.094 121.791" stroke="#1F1D1D" stroke-width="1.57688" stroke-miterlimit="10" stroke-linecap="round"/>
<path d="M157.57 52.6521L153.334 62.2458C152.853 63.3374 152.352 64.449 151.561 65.3402C150.61 66.4018 149.308 67.0727 148.036 67.7237C145.372 69.0756 142.709 70.4275 140.045 71.7694C138.262 72.6707 136.359 73.6021 134.367 73.4218" stroke="#1F1D1D" stroke-width="1.57688" stroke-miterlimit="10" stroke-linecap="round"/>
<path d="M40.272 125.537C42.9458 127.459 46.1704 128.621 49.4651 128.841" stroke="#1F1D1D" stroke-width="1.57688" stroke-miterlimit="10" stroke-linecap="round"/>
<path d="M43.5266 122.071C44.7884 122.221 45.7998 123.152 46.8914 123.813C48.4336 124.745 50.2863 125.155 52.0788 124.965" stroke="#1F1D1D" stroke-width="1.57688" stroke-miterlimit="10" stroke-linecap="round"/>
<path d="M64.1161 228.924C66.119 229.035 68.1219 229.085 70.1347 229.075C71.1262 229.075 72.2578 228.984 72.8887 228.213" stroke="#1F1D1D" stroke-width="1.57688" stroke-miterlimit="10" stroke-linecap="round"/>
<path d="M65.4681 233.309C68.3122 233.59 71.4667 233.8 73.75 232.077" stroke="#1F1D1D" stroke-width="1.57688" stroke-miterlimit="10" stroke-linecap="round"/>
</svg>
