<svg width="181" height="470" viewBox="0 0 181 470" fill="none" xmlns="http://www.w3.org/2000/svg">
<path d="M23.9511 89.1747C20.0732 85.2609 14.8129 82.0472 13.4484 76.6971C12.6405 73.4834 13.4484 70.0902 13.0893 66.8048C12.5507 61.6163 9.31915 57.1997 6.80568 52.6395C-0.662918 39.0489 -2.04533 22.2445 3.14319 7.63046C3.7536 5.88898 4.5256 4.09371 6.01573 2.9806C8.56511 1.05959 12.1737 1.84951 15.2437 2.72923C18.6369 3.69871 22.0481 4.6862 25.1361 6.37381C28.2779 8.09734 30.9888 10.521 33.5921 12.9806C45.9081 24.5965 57.7753 38.0615 66.8417 52.3703C65.9799 51.4367 65.5491 50.162 65.6209 48.8874C68.3857 48.9592 71.3121 49.0848 73.5742 50.6647C74.7591 51.4906 75.8004 52.6575 77.2367 52.7473C78.7268 51.2571 79.9656 49.5157 80.8992 47.6126C81.2223 49.0489 81.4737 50.4133 81.7789 51.8496C83.0715 51.0776 84.418 50.3774 85.7825 49.7311C88.2421 48.6 91.0249 47.5767 93.664 48.1871C93.5922 48.6898 93.2331 48.7437 93.1613 49.2464C98.0087 47.4152 102.641 46.2662 107.829 46.2123C116.034 36.4816 122.641 25.4402 131.24 16.0506C137.937 8.74357 146.285 3.05244 155.639 0.538971C159.894 -0.610044 164.131 2.58559 164.4 6.98417C165.567 26.1404 166.142 45.3146 166.16 64.4888C166.16 69.444 165.944 74.8838 162.587 78.5284C160.468 80.8264 157.434 81.9933 154.723 83.5553C148.135 87.3434 143.305 93.5553 139.032 99.839C140.145 104.076 140.702 108.582 142.946 112.334C140.343 111.688 137.668 111.293 134.975 111.168C136.339 116.248 138.655 121.06 141.743 125.297C139.248 124.471 136.644 124.022 134.023 123.986L130.073 134.291C149.409 151.814 158.027 176.985 161.42 202.514C164.562 226.177 163.951 250.234 167.147 273.897C168.386 283.017 170.181 292.101 170.056 301.312C169.948 309.48 168.332 317.595 168.44 325.782C168.619 339.193 173.449 352.03 178.206 364.561C180.558 370.755 183.018 379.068 172.228 382.335C171.33 382.604 170.379 382.73 169.427 382.622C164.849 382.084 161.151 378.314 159.373 374.041C157.596 369.768 157.38 364.902 157.219 360.199C156.914 351.258 156.608 342.317 156.303 333.394C156.07 326.554 154.4 320.971 154.095 314.148C153.844 308.744 152.192 303.466 149.212 298.96C144.31 310.863 145.602 336.318 145.046 349.19C141.591 376.249 139.158 414.292 137.56 451.707C137.309 457.524 136.77 464.023 131.438 467.326C126.393 470.468 119.84 469.086 115.729 464.795C108.35 457.093 109.194 446.393 110.414 436.59C115.316 397.201 123.538 357.434 117.793 318.152C111.564 314.274 103.61 317.236 96.375 318.511C85.9441 320.342 74.8848 318.439 65.6568 313.233C59.3192 351.689 57.2726 391.85 59.4629 430.755C59.6963 435.028 59.9476 439.588 57.883 443.341C54.3282 449.822 45.7824 451.168 38.4215 451.797C33.9871 452.174 29.5346 452.551 25.1001 452.928C23.9332 453.035 22.6585 453.107 21.707 452.425C20.8632 451.832 20.4861 450.809 20.163 449.822C18.7626 445.423 18.0086 440.612 19.4269 436.231C20.8452 431.85 24.9565 428.08 29.5526 428.278C38.8165 405.441 36.1953 379.427 32.2456 355.118C27.1648 323.861 20.8093 292.55 21.4736 260.899C22.1378 229.247 35.0643 194.202 56.1594 170.593C48.7268 170.037 41.6352 164.004 38.0086 157.433C32.3892 147.254 31.1325 128.6 40.0732 120.755C29.6783 113.268 27.5059 107.846 23.9332 101.006C25.7106 101.15 27.1827 98.9413 26.3928 97.3614C22.9637 97.0024 19.5705 96.1226 16.4107 94.7402C19.2114 92.6397 21.1324 91.2752 23.9332 89.1567L23.9511 89.1747Z" fill="#C8823C"/>
<path d="M150.575 223.015C154.974 251.687 153.502 281.256 146.284 309.353C140.629 331.31 148.349 354.829 140.862 376.247" stroke="#1F1D1D" stroke-width="2.30288" stroke-miterlimit="10" stroke-linecap="round"/>
<path d="M74.9197 155.978C69.4978 156.876 63.8784 156.481 58.636 154.829C55.7276 157.379 51.7419 158.24 48.2231 156.643" stroke="#1F1D1D" stroke-width="2.30288" stroke-miterlimit="10" stroke-linecap="round"/>
<path d="M66.6085 142.064C68.0448 139.569 68.6372 136.409 67.4523 133.788C66.5726 131.831 64.7773 130.359 62.7665 129.569C60.7557 128.779 58.5834 128.564 56.429 128.617C54.1489 128.671 51.8509 129.03 49.7862 129.982C47.7216 130.933 45.8903 132.531 44.9927 134.614C44.1489 136.535 44.1309 138.743 44.6516 140.772C45.4954 144.093 47.8113 147.002 50.8275 148.6C53.3589 149.928 57.8473 150.951 60.4326 149.174C62.7126 147.612 65.2441 144.398 66.6085 142.047V142.064Z" fill="#1F1D1D" stroke="#1F1D1D" stroke-width="2.30288" stroke-miterlimit="10" stroke-linecap="round"/>
<path d="M102.335 88.2619C102.783 88.7466 103.071 89.3391 103.322 89.9495C103.717 90.8651 104.076 91.8346 104.076 92.84C104.076 94.4199 103.125 95.928 101.814 96.8077C100.503 97.6874 98.8517 98.0106 97.2718 97.9208C96.0151 97.849 94.7224 97.5258 93.7171 96.7538C92.0474 95.4611 91.4729 93.0375 92.1551 91.0626C93.4298 87.3822 99.3724 85.0662 102.317 88.2799L102.335 88.2619Z" fill="white"/>
<path d="M46.4811 93.0022C46.9299 93.4869 47.2171 94.0794 47.4685 94.6898C47.8635 95.6054 48.2225 96.5749 48.2225 97.5803C48.2225 99.1602 47.271 100.668 45.9604 101.548C44.6498 102.428 42.9981 102.751 41.4182 102.661C40.1615 102.589 38.8688 102.266 37.8635 101.494C36.1938 100.201 35.6193 97.7778 36.3015 95.8029C37.5762 92.1225 43.5188 89.8064 46.4631 93.0201L46.4811 93.0022Z" fill="white"/>
<path d="M44.1117 96.0122C43.6808 94.6836 42.46 93.6602 41.0956 93.355C39.7311 93.0498 38.2589 93.4448 37.1458 94.2886C36.7868 94.5579 36.4636 94.8811 36.2841 95.294C36.1404 95.6351 36.1045 96.0121 36.0686 96.3891C35.9789 97.4304 35.925 98.5436 36.4995 99.4054C37.3254 100.626 39.013 100.806 40.4851 100.842C43.0166 100.931 44.9735 98.5974 44.1297 95.9942L44.1117 96.0122Z" fill="#1F1D1D"/>
<path d="M100 91.2755C99.5693 89.9469 98.3484 88.9236 96.984 88.6184C95.6195 88.3132 94.1474 88.7081 93.0342 89.5519C92.6752 89.8212 92.352 90.1444 92.1725 90.5573C92.0289 90.8984 91.993 91.2755 91.957 91.6525C91.8673 92.6938 91.8134 93.8069 92.3879 94.6687C93.2138 95.8895 94.9014 96.069 96.3736 96.1049C98.905 96.1947 100.862 93.8608 100.018 91.2575L100 91.2755Z" fill="#1F1D1D"/>
<path d="M86.5543 53.4124C88.6907 51.24 91.1144 49.337 93.7356 47.7931C89.4268 48.0803 85.2078 49.5524 81.671 51.9941C81.1503 49.9653 80.6297 47.9186 80.109 45.8899C79.4448 48.4393 78.188 50.8271 76.4645 52.802C72.9636 50.0192 68.8523 47.0929 64.4537 47.8828C65.3155 49.1754 66.1593 50.4501 67.021 51.7427" stroke="#1F1D1D" stroke-width="2.30288" stroke-linecap="round" stroke-linejoin="round"/>
<path d="M61.5633 90.4344C61.6171 84.061 57.6135 77.8132 51.7787 75.2458C53.1791 76.7539 54.3819 78.4235 55.3514 80.2368C51.5992 78.1183 47.434 76.7001 43.179 76.0538" stroke="#1F1D1D" stroke-width="2.30288" stroke-linecap="round" stroke-linejoin="round"/>
<path d="M82.5164 84.9924C82.8575 83.5562 83.7731 82.3174 84.7606 81.2043C89.1591 76.3569 95.6223 73.4484 102.157 73.3945C100.057 73.6997 98.082 74.7051 96.5918 76.1953C101.062 75.9798 105.586 76.8416 109.662 78.6908" stroke="#1F1D1D" stroke-width="2.30288" stroke-linecap="round" stroke-linejoin="round"/>
<path d="M8.6388 14.9182C9.28512 20.5735 6.80755 26.1751 7.20253 31.8483C7.38206 34.6131 8.24382 37.2882 9.14149 39.9094C12.4449 49.6939 16.2151 59.3169 20.4162 68.7425" stroke="#1F1D1D" stroke-width="2.30288" stroke-miterlimit="10" stroke-linecap="round"/>
<path d="M157.904 14.2058V56.5757C157.922 59.1251 157.922 61.7284 157.186 64.17C156.216 67.3298 154.098 69.9689 152.015 72.5183C149.502 75.6063 146.988 78.6943 144.475 81.7823" stroke="#1F1D1D" stroke-width="2.30288" stroke-miterlimit="10" stroke-linecap="round"/>
<path d="M93.7177 270.7C92.443 277.324 96.7518 283.626 100.917 288.958C98.9422 287.414 96.7698 286.14 94.4538 285.17C94.8667 287.737 95.8901 290.197 97.3802 292.316" stroke="#1F1D1D" stroke-width="2.30288" stroke-linecap="round" stroke-linejoin="round"/>
<path d="M87.1449 258.241C88.0246 264.417 85.4214 270.988 80.538 274.866C82.1897 275.566 84.2544 275.225 85.5829 274.004C84.7391 275.53 84.2185 277.235 84.0569 278.977" stroke="#1F1D1D" stroke-width="2.30288" stroke-linecap="round" stroke-linejoin="round"/>
<path d="M40.753 434.186C38.8858 431.583 35.7979 429.896 32.6022 429.752C29.4065 429.608 26.1749 430.991 24.0743 433.396" stroke="#1F1D1D" stroke-width="2.30288" stroke-linecap="round" stroke-linejoin="round"/>
<path d="M129.393 454.22C129.483 458.134 129.465 462.048 129.321 465.944" stroke="#1F1D1D" stroke-width="2.30288" stroke-linecap="round" stroke-linejoin="round"/>
<path d="M121.312 454.777V465.101" stroke="#1F1D1D" stroke-width="2.30288" stroke-linecap="round" stroke-linejoin="round"/>
<path d="M35.7457 438.923C33.2323 440.88 31.5087 443.824 31.0599 446.984" stroke="#1F1D1D" stroke-width="2.30288" stroke-linecap="round" stroke-linejoin="round"/>
<path d="M28.2214 437.882C25.9593 440.233 24.1998 443.07 23.1047 446.14" stroke="#1F1D1D" stroke-width="2.30288" stroke-linecap="round" stroke-linejoin="round"/>
<path d="M176.534 374.991C177.073 373.267 176.229 371.346 174.901 370.108C173.572 368.869 171.849 368.187 170.161 367.54" stroke="#1F1D1D" stroke-width="2.30288" stroke-linecap="round" stroke-linejoin="round"/>
<path d="M170.488 375.764C169.519 372.963 167.167 370.683 164.348 369.785" stroke="#1F1D1D" stroke-width="2.30288" stroke-linecap="round" stroke-linejoin="round"/>
</svg>
