<svg width="1001" height="1000" viewBox="0 0 1001 1000" fill="none" xmlns="http://www.w3.org/2000/svg">
<path d="M1000.25 500C1000.25 638.051 944.273 763.075 853.823 853.575C810.189 897.16 758.573 932.762 701.325 957.884C693.784 961.263 686.095 964.398 678.309 967.287C623.02 988.443 562.981 1000 500.248 1000C451.668 1000 404.754 993.095 360.336 980.166C335.312 972.87 311.071 963.663 287.81 952.693C235.067 927.963 187.369 894.27 146.673 853.575C56.223 763.075 0.248535 638.051 0.248535 500C0.248535 416.944 20.4738 338.639 56.321 269.736C80.0722 224.045 110.63 182.517 146.673 146.425C237.173 55.9745 362.197 0 500.248 0C693.882 0 861.854 110.088 944.861 271.107C980.267 339.667 1000.25 417.532 1000.25 500Z" fill="#F16533"/>
<path d="M678.31 967.287C623.021 988.443 562.982 1000 500.25 1000C451.67 1000 404.755 993.095 360.338 980.167C372.679 944.76 385.02 909.305 397.36 873.898C411.905 832.174 426.498 786.288 411.366 744.76C405.049 727.424 393.981 712.341 386.44 695.544C378.947 678.746 375.96 652.84 384.873 636.778C368.957 578.991 370.965 516.357 390.553 459.745C393.688 450.735 398.83 440.5 408.281 439.177C418.761 437.757 426.694 448.139 432.13 457.297C447.899 483.84 463.717 510.333 479.486 536.876C502.013 527.179 528.261 530.803 549.711 542.703C564.892 515.132 577.576 486.435 592.757 458.864C597.801 449.657 604.559 439.324 614.99 438.688C626.743 438.002 634.97 449.902 639.867 460.676C663.864 513.516 667.683 575.318 650.347 630.754C660.093 647.943 663.178 673.8 656.518 692.458C649.907 711.117 637.419 727.13 623.707 741.283C638.594 793.683 647.311 849.217 662.248 901.616C668.418 923.213 674.588 945.152 678.31 967.287Z" fill="white"/>
<path d="M89.7199 264.594C89.4261 265.427 89.2302 266.21 89.0343 266.945C88.9364 266.112 89.1322 265.28 89.7199 264.594Z" fill="#F0E7D9"/>
<path d="M362.148 500.979C358.818 496.474 356.517 491.871 353.187 487.365C355.096 501.371 357.006 515.328 358.867 529.285C359.259 532.223 359.651 535.406 358.329 538.1C356.615 541.626 352.305 543.34 348.387 543.046C344.47 542.752 340.846 540.891 337.418 538.932C323.069 530.558 310.336 519.442 300.101 506.317C302.452 543.977 314.646 579.824 326.889 615.524C339.132 651.224 348.828 689.716 340.307 726.494C337.026 719.05 333.745 711.606 330.464 704.163C338.544 742.214 336.781 782.321 325.371 819.54C311.757 864.006 284.431 907.15 287.81 952.693C235.067 927.963 187.369 894.27 146.673 853.575C56.223 763.075 0.248535 638.051 0.248535 500C0.248535 416.944 20.4738 338.639 56.321 269.736C67.1437 270.96 77.4767 274.437 86.5364 280.754C88.2014 275.808 87.9076 271.694 89.0339 266.944C89.1808 268.952 91.0418 271.009 93.1476 271.401C96.1838 271.939 99.1221 270.323 101.816 268.805C112.197 262.782 122.531 256.758 132.912 250.735C127.575 257.444 122.237 264.153 116.85 270.813C139.083 270.617 160.973 262.145 176.889 246.572C175.518 252.84 174.098 259.109 172.726 265.377C205.048 257.933 235.753 277.914 263.128 296.621C291.972 316.259 321.404 336.435 342.119 364.594C362.785 392.703 373.412 430.803 360.385 463.222C355.929 474.29 361.708 489.03 362.148 500.979Z" fill="white"/>
<path d="M1000.25 500.001C1000.25 638.051 944.274 763.076 853.824 853.575C810.19 897.16 758.574 932.763 701.326 957.885C680.318 856.465 696.968 748.678 744.03 656.122C738.006 640.745 749.808 624.29 750.249 607.787C750.543 595.985 745.352 581.489 736.194 574.046C716.361 557.934 696.429 541.675 680.464 521.695C664.549 501.764 652.796 477.572 652.061 452.106C651.375 428.061 660.533 404.555 673.706 384.379C686.88 364.202 704.02 346.964 721.013 329.873C735.459 315.329 750.102 300.686 767.487 289.815C784.872 278.943 805.587 272.087 825.959 274.78C862.296 259.207 906.468 258.326 944.862 271.107C980.268 339.668 1000.25 417.532 1000.25 500.001Z" fill="white"/>
<path d="M82.6681 512.292C95.4987 502.841 112.051 498.531 127.869 500.441C134.235 501.225 140.65 503.037 145.499 507.199C150.347 511.313 153.236 518.12 151.375 524.143C146.135 523.213 140.504 526.543 138.838 531.489C137.124 536.435 139.622 542.459 144.323 544.809C140.161 554.31 131.738 561.949 121.307 563.321C110.925 564.692 99.9061 560.284 93.3929 552.204C97.9962 549.902 100.788 544.662 99.7592 539.667C98.7308 534.672 94.1275 530.608 88.9365 530.216C88.104 533.693 83.9414 535.946 80.5624 534.77C77.8689 529.09 80.3665 518.12 82.6192 512.292H82.6681Z" fill="black"/>
<path d="M475.57 690.842C488.401 681.391 504.953 677.081 520.771 678.991C527.137 679.775 533.552 681.587 538.4 685.749C543.249 689.863 546.138 696.67 544.277 702.694C539.037 701.763 533.405 705.093 531.74 710.039C530.075 714.985 532.524 721.009 537.225 723.36C533.063 732.86 524.64 740.549 514.258 741.871C503.876 743.242 492.857 738.835 486.344 730.754C490.947 728.453 493.738 723.213 492.71 718.218C491.682 713.222 487.029 709.109 481.887 708.717C481.055 712.194 476.892 714.447 473.464 713.271C470.771 707.591 473.268 696.621 475.521 690.793H475.57V690.842Z" fill="black"/>
<path d="M862.834 481.048C875.665 471.596 892.168 467.287 908.035 469.197C914.401 469.98 920.817 471.792 925.665 475.955C930.513 480.069 933.402 486.876 931.541 492.899C926.301 491.969 920.67 495.299 919.005 500.245C917.34 505.191 919.788 511.214 924.489 513.565C920.327 523.066 911.904 530.705 901.473 532.076C891.091 533.448 880.072 529.04 873.559 520.96C878.162 518.658 880.954 513.418 879.925 508.423C878.897 503.428 874.245 499.363 869.103 498.972C868.27 502.449 864.108 504.701 860.68 503.526C857.986 497.845 860.484 486.876 862.736 481.048H862.834Z" fill="black"/>
</svg>
