<svg width="1546" height="418" viewBox="0 0 1546 418" fill="none" xmlns="http://www.w3.org/2000/svg">
<path d="M416.839 208.617C416.839 266.159 393.508 318.27 355.807 355.992C337.62 374.158 316.106 388.998 292.244 399.469C289.101 400.878 285.896 402.184 282.651 403.388C259.606 412.206 234.581 417.023 208.433 417.023C188.184 417.023 168.63 414.145 150.116 408.757C139.685 405.715 129.581 401.878 119.886 397.305C97.9022 386.997 78.0209 372.954 61.0586 355.992C23.3577 318.27 0.0268555 266.159 0.0268555 208.617C0.0268555 173.999 8.45698 141.36 23.3985 112.64C33.2983 93.596 46.0354 76.2867 61.0586 61.2431C98.7799 23.5422 150.892 0.211365 208.433 0.211365C289.142 0.211365 359.155 46.0974 393.753 113.212C408.511 141.789 416.839 174.244 416.839 208.617Z" fill="#F16533"/>
<path d="M282.651 403.388C259.606 412.206 234.581 417.023 208.434 417.023C188.185 417.023 168.63 414.145 150.117 408.756C155.261 393.999 160.404 379.22 165.548 364.463C171.61 347.072 177.693 327.946 171.386 310.636C168.753 303.41 164.14 297.124 160.996 290.122C157.873 283.121 156.628 272.323 160.343 265.628C153.709 241.542 154.546 215.435 162.711 191.839C164.017 188.083 166.16 183.817 170.1 183.266C174.468 182.674 177.775 187.001 180.041 190.818C186.613 201.881 193.206 212.924 199.779 223.988C209.168 219.946 220.109 221.456 229.05 226.417C235.377 214.925 240.664 202.963 246.992 191.471C249.094 187.634 251.911 183.327 256.259 183.062C261.158 182.776 264.587 187.736 266.628 192.227C276.63 214.251 278.222 240.011 270.996 263.117C275.058 270.282 276.344 281.059 273.568 288.836C270.813 296.613 265.608 303.288 259.892 309.187C266.097 331.028 269.731 354.175 275.956 376.016C278.528 385.017 281.1 394.162 282.651 403.388Z" fill="#F0E7D9"/>
<path d="M150.871 209.026C149.483 207.148 148.524 205.229 147.136 203.351C147.932 209.189 148.728 215.006 149.504 220.824C149.667 222.048 149.83 223.375 149.279 224.498C148.565 225.968 146.768 226.682 145.135 226.559C143.502 226.437 141.992 225.661 140.563 224.845C134.582 221.354 129.275 216.721 125.009 211.251C125.989 226.947 131.072 241.889 136.175 256.769C141.278 271.649 145.319 287.693 141.767 303.023C140.4 299.92 139.032 296.817 137.665 293.715C141.033 309.575 140.298 326.292 135.542 341.805C129.867 360.339 118.477 378.322 119.886 397.305C97.9022 386.997 78.0209 372.954 61.0586 355.992C23.3577 318.27 0.0268555 266.159 0.0268555 208.617C0.0268555 173.999 8.45698 141.36 23.3985 112.64C27.9096 113.151 32.2165 114.6 35.9927 117.233C36.6867 115.171 36.5642 113.457 37.0337 111.477C37.0949 112.314 37.8706 113.171 38.7483 113.334C40.0139 113.559 41.2386 112.885 42.3612 112.253C46.6886 109.742 50.9955 107.231 55.3228 104.721C53.0979 107.517 50.873 110.313 48.6277 113.089C57.8947 113.008 67.0189 109.477 73.6527 102.986C73.0812 105.598 72.4893 108.211 71.9177 110.824C85.3896 107.721 98.1879 116.049 109.598 123.847C121.621 132.032 133.888 140.441 142.523 152.178C151.137 163.895 155.566 179.775 150.136 193.288C148.279 197.901 150.687 204.045 150.871 209.026Z" fill="#F0E7D9"/>
<path d="M416.839 208.617C416.839 266.159 393.508 318.27 355.808 355.992C337.62 374.158 316.106 388.998 292.245 399.469C283.488 357.196 290.428 312.269 310.044 273.691C307.533 267.281 312.453 260.423 312.636 253.544C312.759 248.625 310.595 242.583 306.778 239.48C298.511 232.765 290.204 225.988 283.549 217.66C276.915 209.352 272.017 199.269 271.71 188.654C271.425 178.632 275.242 168.834 280.732 160.425C286.223 152.015 293.367 144.83 300.45 137.706C306.472 131.644 312.575 125.541 319.821 121.009C327.068 116.478 335.702 113.62 344.193 114.743C359.339 108.252 377.75 107.884 393.753 113.212C408.511 141.789 416.839 174.244 416.839 208.617Z" fill="#F0E7D9"/>
<path d="M34.3806 213.741C39.7286 209.801 46.6278 208.005 53.2209 208.801C55.8744 209.128 58.5484 209.883 60.5692 211.618C62.5899 213.333 63.7943 216.17 63.0186 218.68C60.8345 218.293 58.4871 219.681 57.7931 221.742C57.0787 223.804 58.1197 226.315 60.0793 227.294C58.3443 231.254 54.8334 234.438 50.4857 235.01C46.1583 235.582 41.5656 233.744 38.8508 230.377C40.7696 229.417 41.9331 227.233 41.5044 225.151C41.0758 223.069 39.157 221.375 36.9934 221.212C36.6464 222.661 34.9113 223.6 33.5029 223.11C32.3803 220.742 33.4213 216.17 34.3602 213.741H34.3806Z" fill="black"/>
<path d="M198.147 288.163C203.495 284.223 210.394 282.427 216.987 283.223C219.641 283.55 222.314 284.305 224.335 286.04C226.356 287.754 227.56 290.592 226.785 293.102C224.601 292.715 222.253 294.103 221.559 296.164C220.865 298.226 221.886 300.737 223.845 301.716C222.11 305.676 218.6 308.881 214.272 309.432C209.945 310.004 205.352 308.166 202.637 304.798C204.556 303.839 205.72 301.655 205.291 299.573C204.862 297.491 202.923 295.776 200.78 295.613C200.433 297.062 198.698 298.001 197.269 297.511C196.146 295.144 197.187 290.571 198.126 288.142H198.147V288.163Z" fill="black"/>
<path d="M359.563 200.718C364.911 196.778 371.79 194.982 378.403 195.778C381.057 196.105 383.731 196.86 385.752 198.595C387.773 200.31 388.977 203.147 388.201 205.658C386.017 205.27 383.67 206.658 382.976 208.719C382.282 210.781 383.302 213.292 385.262 214.272C383.527 218.231 380.016 221.416 375.668 221.987C371.341 222.559 366.748 220.722 364.033 217.354C365.952 216.394 367.116 214.21 366.687 212.128C366.258 210.046 364.319 208.352 362.176 208.189C361.829 209.638 360.094 210.577 358.665 210.087C357.542 207.719 358.583 203.147 359.522 200.718H359.563Z" fill="black"/>
<path d="M734.193 204.218C734.989 210.75 734.581 217.302 733.397 223.63C733.009 226.202 732.601 228.774 732.009 231.162C731.213 234.53 730.029 237.51 728.437 240.266C726.457 244.042 724.681 247.594 722.681 251.166C721.885 252.35 720.905 253.554 719.905 254.738C716.333 258.902 712.781 263.27 708.209 266.638C703.453 270.394 698.309 272.782 692.553 273.966C688.185 274.762 683.633 275.15 678.877 275.558C675.509 275.17 671.753 275.17 668.181 274.374C662.241 272.782 656.689 270.598 651.729 266.638C647.361 263.27 643.809 259.106 640.237 255.146C639.053 253.758 637.869 252.166 637.257 250.39C636.869 249.39 636.257 248.614 635.869 247.818C634.481 245.634 633.297 243.654 632.113 241.47C630.725 238.694 629.337 235.918 628.949 232.754C628.562 229.978 627.357 227.202 626.765 224.426C625.377 218.486 625.377 212.342 625.581 206.198C625.969 199.85 627.173 193.522 628.745 187.174C629.541 183.602 630.337 179.846 632.317 176.478C635.889 170.926 639.257 165.19 644.013 160.23C646.197 158.046 648.177 155.679 650.545 153.699C656.893 147.942 664.017 143.982 672.549 142.799C681.673 141.615 690.777 142.003 699.289 146.371C702.065 147.759 704.637 149.535 707.025 151.514C710.393 154.495 713.761 157.454 716.741 160.822C720.701 165.578 724.273 170.538 727.233 175.886C729.805 180.438 731.397 185.602 732.193 190.746C732.989 195.298 733.581 199.666 734.173 204.218H734.193ZM689.614 228.386C693.186 221.854 694.37 214.71 694.574 208.178C694.574 202.626 694.186 198.278 692.798 193.91C691.614 189.542 689.818 185.398 686.654 182.01C682.102 177.05 675.754 178.846 673.182 182.418C670.202 186.174 667.834 190.542 666.65 195.298C665.262 201.238 664.67 207.198 665.262 213.138C665.854 220.282 668.038 226.61 672.386 232.55C674.958 235.918 681.102 238.102 685.47 233.938C687.246 232.346 688.634 230.57 689.634 228.386H689.614Z" fill="black"/>
<path d="M852.604 203.626C853.4 213.138 853.196 222.446 851.42 231.754C849.44 242.45 845.48 252.37 839.336 261.27C833.784 269.394 826.068 274.537 816.944 277.722C812.392 279.314 807.841 280.294 803.085 280.498C800.513 280.498 797.941 280.885 795.349 280.885C790.205 280.681 785.245 280.294 780.284 279.293C770.977 277.109 763.445 272.557 757.893 264.638C755.321 260.882 752.932 257.106 750.952 253.146C747.38 246.022 745.809 238.49 744.809 230.754C744.604 228.182 744.217 225.406 744.217 222.63C743.829 209.546 745.013 196.482 749.952 184.194C752.728 177.07 755.892 169.926 760.056 163.19C765.812 154.066 772.936 146.35 782.448 141.002C788 137.839 794.144 136.655 800.472 137.042C803.248 137.247 806.228 137.43 808.984 137.839C815.128 138.43 820.271 141.411 825.027 145.166C828.395 147.555 831.376 150.31 834.152 153.29C835.744 155.066 837.52 156.658 839.112 158.25C839.908 159.047 839.908 159.843 839.112 160.822C838.724 161.21 838.316 161.414 837.928 161.823C831.58 167.579 825.252 173.314 818.7 179.05C817.7 179.846 816.72 180.642 815.332 181.622C814.332 180.826 813.74 180.438 812.944 180.03C808.575 177.05 804.024 176.866 799.472 179.234C795.308 181.214 792.348 184.582 789.756 188.358C786.184 193.91 783.999 200.054 783.224 206.586C782.632 210.934 782.428 215.302 782.428 219.67C782.224 225.814 784.204 231.162 787.388 236.306C788.776 238.286 790.552 240.062 792.532 241.45C794.899 243.225 797.88 243.634 800.656 243.43C802.044 243.225 803.228 242.633 804.411 241.654C806.595 239.47 808.371 237.286 809.371 234.326C809.963 232.346 810.964 230.57 810.964 228.182C807.208 227.978 803.636 226.998 799.86 227.386C799.268 227.59 798.472 227.59 797.88 227.386C797.288 227.386 796.492 226.998 795.9 226.794C795.695 226.202 795.512 225.794 795.512 225.202C795.716 216.669 796.104 208.158 796.308 199.442C796.308 198.85 796.308 198.054 796.512 197.462C796.716 195.87 797.512 194.686 799.288 194.482C801.656 194.094 804.044 193.298 806.412 193.094C809.78 192.502 813.352 192.298 816.72 191.91C825.64 190.93 834.948 191.318 844.072 191.318C845.256 191.114 846.46 191.114 847.644 191.318C850.012 191.318 850.624 191.91 851.012 194.094C851.604 197.258 852.4 200.442 852.604 203.606V203.626Z" fill="black"/>
<path d="M971.033 203.626C971.829 213.138 971.625 222.446 969.849 231.754C967.869 242.45 963.909 252.37 957.765 261.27C952.213 269.394 944.498 274.537 935.373 277.722C930.822 279.314 926.249 280.294 921.514 280.498C918.942 280.498 916.37 280.885 913.778 280.885C908.634 280.681 903.674 280.294 898.714 279.293C889.406 277.109 881.874 272.557 876.322 264.638C873.75 260.882 871.362 257.106 869.382 253.146C865.81 246.022 864.238 238.49 863.238 230.754C863.034 228.182 862.646 225.406 862.646 222.63C862.258 209.546 863.442 196.482 868.402 184.194C871.178 177.07 874.342 169.926 878.506 163.19C884.262 154.066 891.386 146.35 900.898 141.002C906.45 137.839 912.594 136.655 918.921 137.042C921.697 137.247 924.678 137.43 927.433 137.839C933.577 138.43 938.721 141.411 943.477 145.166C946.845 147.555 949.825 150.31 952.601 153.29C954.193 155.066 955.969 156.658 957.561 158.25C958.357 159.047 958.357 159.843 957.561 160.822C957.173 161.21 956.765 161.414 956.377 161.823C950.029 167.579 943.702 173.314 937.149 179.05C936.149 179.846 935.169 180.642 933.781 181.622C932.781 180.826 932.189 180.438 931.393 180.03C927.045 177.05 922.473 176.866 917.921 179.234C913.757 181.214 910.798 184.582 908.205 188.358C904.633 193.91 902.449 200.054 901.673 206.586C901.081 210.934 900.877 215.302 900.877 219.67C900.673 225.814 902.653 231.162 905.837 236.306C907.225 238.286 909.001 240.062 910.981 241.45C913.369 243.225 916.329 243.634 919.105 243.43C920.493 243.225 921.677 242.633 922.861 241.654C925.045 239.47 926.821 237.286 927.821 234.326C928.413 232.346 929.413 230.57 929.413 228.182C925.637 227.978 922.085 226.998 918.309 227.386C917.717 227.59 916.921 227.59 916.329 227.386C915.737 227.386 914.941 226.998 914.349 226.794C914.145 226.202 913.961 225.794 913.961 225.202C914.165 216.669 914.553 208.158 914.757 199.442C914.757 198.85 914.757 198.054 914.962 197.462C915.166 195.87 915.962 194.686 917.738 194.482C920.105 194.094 922.494 193.298 924.861 193.094C928.229 192.502 931.801 192.298 935.169 191.91C944.089 190.93 953.397 191.318 962.521 191.318C963.705 191.114 964.91 191.114 966.093 191.318C968.461 191.318 969.074 191.91 969.461 194.094C970.053 197.258 970.849 200.442 971.054 203.606H971.033V203.626Z" fill="black"/>
<path d="M1089.67 204.218C1090.46 210.75 1090.06 217.302 1088.87 223.63C1088.48 226.202 1088.08 228.774 1087.48 231.162C1086.69 234.53 1085.5 237.51 1083.91 240.266C1081.93 244.042 1080.16 247.594 1078.16 251.166C1077.36 252.35 1076.38 253.554 1075.38 254.738C1071.81 258.902 1068.26 263.27 1063.68 266.638C1058.93 270.394 1053.78 272.782 1048.03 273.966C1043.68 274.762 1039.11 275.15 1034.35 275.558C1030.98 275.17 1027.21 275.17 1023.66 274.374C1017.72 272.782 1012.16 270.598 1007.2 266.638C1002.84 263.27 999.284 259.106 995.712 255.146C994.528 253.758 993.324 252.166 992.732 250.39C992.344 249.39 991.732 248.614 991.344 247.818C989.956 245.634 988.772 243.654 987.588 241.47C986.2 238.694 984.812 235.918 984.424 232.754C984.016 229.978 982.832 227.202 982.24 224.426C980.852 218.486 980.852 212.342 981.056 206.198C981.444 199.85 982.649 193.522 984.22 187.174C985.016 183.602 985.812 179.846 987.792 176.478C991.364 170.926 994.732 165.19 999.488 160.23C1001.67 158.046 1003.65 155.679 1006.02 153.699C1012.37 147.942 1019.49 143.982 1028.02 142.799C1037.13 141.615 1046.25 142.003 1054.78 146.371C1057.56 147.759 1060.13 149.535 1062.52 151.514C1065.89 154.495 1069.26 157.454 1072.24 160.822C1076.2 165.578 1079.77 170.538 1082.73 175.886C1085.3 180.438 1086.89 185.602 1087.69 190.746C1088.48 195.298 1089.08 199.666 1089.67 204.218ZM1045.09 228.386C1048.66 221.854 1049.84 214.71 1050.05 208.178C1050.05 202.626 1049.66 198.278 1048.27 193.91C1047.09 189.542 1045.29 185.398 1042.13 182.01C1037.58 177.05 1031.23 178.846 1028.66 182.418C1025.68 186.174 1023.31 190.542 1022.13 195.298C1020.74 201.238 1020.15 207.198 1020.74 213.138C1021.33 220.282 1023.51 226.61 1027.88 232.55C1030.45 235.918 1036.6 238.102 1040.97 233.938C1042.74 232.346 1044.13 230.57 1045.13 228.386H1045.09Z" fill="black"/>
<path d="M1185.69 235.918C1185.89 246.818 1185.89 257.718 1186.07 268.618C1186.07 270.802 1185.87 272.966 1185.69 275.15C1185.69 276.742 1185.3 278.13 1184.3 279.11C1179.15 278.906 1174.19 278.906 1169.44 278.518C1158.33 277.517 1147.05 278.13 1135.94 277.926H1112.16C1109.98 277.926 1107.79 277.722 1105.81 277.13C1103.04 276.334 1101.45 274.741 1101.06 271.986C1101.06 270.802 1100.85 269.802 1100.85 268.618C1100.26 253.554 1099.47 238.49 1099.67 223.446C1099.67 213.934 1100.26 204.626 1100.47 195.114C1100.85 186.194 1101.26 177.274 1101.65 168.171C1101.65 164.415 1102.06 160.639 1102.06 156.883C1102.26 153.127 1102.26 149.555 1102.26 145.779C1102.47 144.779 1102.26 143.799 1102.47 143.003C1102.47 141.819 1103.06 140.819 1104.24 140.431C1105.24 140.227 1106.22 139.839 1107.02 139.839C1112.16 139.451 1117.33 138.655 1122.47 138.839H1139.31C1140.9 138.839 1142.47 139.043 1144.27 139.247C1145.45 139.451 1146.25 140.431 1146.45 141.819C1146.45 143.595 1146.66 145.391 1146.66 146.963C1146.66 149.943 1146.45 152.719 1146.45 155.679C1146.25 161.435 1146.07 167.375 1145.86 173.11C1145.27 186.582 1144.86 199.85 1145.07 213.138C1145.27 216.118 1145.45 218.894 1145.45 221.854C1145.66 224.038 1145.45 226.222 1145.25 228.794C1146.64 228.794 1147.62 228.998 1148.82 228.998C1153.37 228.998 1158.13 228.998 1162.7 228.794C1165.87 228.59 1168.85 227.998 1172.01 227.998C1174.19 227.794 1176.38 227.998 1178.54 228.202C1180.32 228.406 1182.3 228.794 1184.48 229.182C1184.69 229.57 1185.07 230.366 1185.28 231.162C1185.48 232.754 1185.67 234.326 1185.67 235.918H1185.69Z" fill="black"/>
<path d="M1312.38 234.734C1313.38 244.45 1313.97 254.35 1313.77 264.066C1313.57 268.23 1312.97 272.394 1312.38 276.946C1307.24 278.13 1302.48 278.13 1297.52 277.742C1295.34 277.538 1293.15 277.354 1290.99 277.354C1287.24 277.354 1283.66 277.558 1279.89 277.558C1278.29 277.558 1277.31 276.762 1277.31 275.17C1277.11 273.19 1277.11 271.414 1277.11 269.414C1277.11 262.882 1277.31 256.33 1277.11 249.798C1277.11 248.41 1276.91 247.226 1276.72 245.634C1275.93 245.43 1275.13 245.246 1274.33 245.246C1266.41 245.246 1258.47 245.246 1250.55 245.45C1247.78 245.654 1245 245.838 1242.04 245.45C1239.47 245.246 1236.7 245.45 1233.71 245.45C1233.51 246.43 1233.33 247.042 1233.33 247.818C1233.12 255.942 1232.94 263.862 1232.74 271.986V272.782C1232.53 275.15 1232.14 275.558 1229.75 275.558C1227.98 275.762 1226.18 275.762 1224.41 275.762C1219.45 275.558 1214.51 275.966 1209.75 276.354C1206.38 276.762 1202.81 276.15 1199.44 276.946C1198.65 277.334 1197.46 276.354 1197.06 275.17C1196.85 274.578 1196.67 273.986 1196.67 273.19C1196.28 264.474 1195.28 255.554 1195.69 246.838C1195.89 243.674 1196.08 240.694 1196.28 237.714C1196.48 234.142 1196.67 230.774 1197.08 227.222C1197.67 222.079 1198.26 216.914 1199.06 211.771C1199.85 207.219 1200.44 202.463 1201.44 197.707C1203.42 187.991 1207 178.683 1211.75 169.967C1212.94 167.783 1214.73 165.803 1216.3 163.619C1221.26 157.087 1227.2 151.535 1233.74 146.575C1236.9 144.391 1240.47 142.227 1244.23 141.431C1249.78 140.247 1255.33 139.247 1260.86 140.431C1263.43 141.227 1266.01 141.227 1268.6 141.615C1274.95 142.799 1280.48 145.983 1285.44 150.147C1286.03 150.535 1286.42 151.147 1287.03 151.535C1297.13 160.251 1303.28 171.559 1306.05 184.623C1306.85 188.399 1307.24 192.359 1307.65 196.319C1309.24 208.995 1311.01 221.875 1312.4 234.754H1312.38V234.734ZM1273.95 202.83C1274.95 199.462 1275.13 196.686 1274.33 194.318C1272.56 188.97 1269.58 184.419 1264.62 181.051C1261.45 178.867 1258.09 178.662 1254.72 180.663C1249.57 184.031 1245.41 188.195 1243.43 194.135C1242.84 195.911 1242.63 197.89 1242.45 199.687C1242.25 200.483 1242.25 201.279 1242.25 202.259C1243.23 202.463 1244.02 202.851 1244.82 202.851C1254.54 203.443 1264.05 202.851 1273.95 202.851V202.83Z" fill="black"/>
<path d="M1442.67 177.274C1442.28 188.174 1442.88 198.87 1442.88 209.566C1442.88 216.506 1442.49 223.242 1441.49 229.978C1440.69 234.734 1440.1 239.694 1438.71 244.45C1437.73 247.226 1436.73 250.002 1435.73 252.962C1433.96 257.922 1430.77 262.27 1427.4 266.434C1425.81 268.414 1424.24 270.394 1422.06 271.986C1419.08 274.17 1415.71 275.742 1411.95 275.946C1410.77 276.15 1409.58 276.15 1408.38 276.334C1402.03 277.334 1396.09 276.129 1390.54 273.762C1387.38 272.374 1384.78 270.394 1382.8 267.822C1380.62 264.842 1378.05 262.066 1376.27 258.902C1374.5 256.33 1373.29 253.35 1371.92 250.574C1370.92 248.186 1370.15 245.818 1369.15 243.246C1366.96 236.898 1365.58 230.162 1364.39 223.63C1364 221.65 1363.6 219.874 1363.21 217.69C1362.02 218.874 1362.02 220.078 1361.82 221.058C1361.43 225.814 1361.23 230.366 1360.84 234.918C1360.25 246.614 1360.04 258.106 1360.04 269.781V271.373C1359.84 272.966 1359.06 273.945 1357.66 274.354C1354.88 274.946 1352.1 275.354 1349.14 275.946C1342.8 277.13 1336.26 276.334 1329.73 276.742C1328.94 276.742 1328.34 276.742 1327.75 276.538C1326.77 276.129 1325.98 275.538 1325.77 274.354C1325.77 273.762 1325.57 273.17 1325.57 272.374C1324.98 263.27 1324.57 253.942 1323.79 244.634C1323 232.142 1323.4 219.67 1323.59 207.178C1323.79 198.85 1324.18 190.542 1325.77 182.214C1327.36 173.886 1330.73 166.558 1336.08 160.026C1340.04 155.27 1345 152.494 1350.55 150.514C1360.27 148.738 1368.98 150.127 1376.11 157.454C1378.68 160.23 1380.66 163.211 1382.46 166.374C1387.6 175.478 1391.17 185.194 1394.54 195.094C1397.11 202.626 1399.09 210.362 1400.48 218.282C1400.68 220.058 1401.07 221.65 1401.48 223.426C1402.87 222.834 1402.48 221.834 1402.66 221.242C1403.26 211.526 1403.85 201.83 1403.64 192.318V170.518C1403.85 162.006 1404.05 153.474 1404.24 144.758C1404.24 142.778 1404.83 141.982 1406.81 141.778C1409.38 141.574 1411.95 141.186 1414.54 141.186C1422.46 140.982 1430.59 140.982 1438.53 140.982C1439.32 140.982 1439.92 141.186 1440.9 141.37C1441.28 149.698 1441.9 157.618 1442.28 165.538C1442.49 169.314 1442.88 173.274 1442.67 177.234V177.274Z" fill="black"/>
<path d="M1545.18 195.094H1545.39C1545.79 199.258 1545.98 203.218 1545.98 207.382C1546.18 214.71 1544.98 221.65 1543 228.774C1541.02 236.898 1536.65 244.042 1531.3 250.37C1526.34 256.514 1520.61 261.657 1514.46 266.413C1508.52 270.965 1501.97 274.741 1494.64 276.721C1489.89 277.905 1485.13 278.701 1480.17 278.701C1475.62 278.701 1470.86 279.11 1466.29 278.109C1461.53 276.925 1456.78 275.537 1452.61 272.557C1452.61 271.761 1452.41 270.965 1452.61 270.169V250.941C1452.82 241.837 1453 232.713 1453 223.589C1453 215.465 1452.8 207.341 1452.8 199.013C1452.8 191.481 1453 183.765 1453.18 176.233C1453.57 167.722 1454.37 159.189 1455.57 150.678C1455.78 148.698 1455.78 146.901 1455.96 144.738C1457.55 143.146 1459.53 142.166 1461.72 141.37C1470.04 139.002 1478.35 138.594 1486.88 139.594C1497.19 140.778 1506.5 144.738 1515.42 149.698C1522.36 153.658 1527.71 159.21 1532.46 165.537C1538.81 174.458 1543.75 184.174 1545.14 195.053L1545.18 195.094ZM1506.54 220.466C1508.32 215.506 1508.73 210.158 1508.13 204.81C1507.54 200.258 1506.15 195.706 1503.58 191.726C1502.19 189.542 1500.42 187.766 1498.03 186.378C1496.25 185.378 1494.25 184.398 1491.5 184.99C1490.7 201.83 1491.11 218.466 1491.29 235.326C1495.46 234.346 1498.83 232.754 1501.4 229.774C1503.79 226.998 1505.36 224.018 1506.54 220.466Z" fill="black"/>
<path d="M615.987 207.382C615.987 203.218 615.783 199.258 615.395 195.094H615.191C613.803 184.194 608.843 174.498 602.515 165.578C597.759 159.23 592.411 153.678 585.471 149.718C576.551 144.758 567.243 140.798 556.935 139.614C548.423 138.614 540.095 139.022 531.767 141.39C529.583 142.186 527.603 143.186 526.031 144.758C525.827 146.942 525.827 148.739 525.623 150.718C524.439 159.23 523.643 167.742 523.255 176.274C523.051 183.806 522.847 191.522 522.847 199.054C522.847 207.382 523.051 215.506 523.051 223.63C523.051 232.734 522.847 241.858 522.663 250.982V270.19C522.459 270.986 522.663 271.782 522.663 272.578C526.828 275.538 531.583 276.926 536.339 278.109C540.891 279.11 545.647 278.722 550.199 278.722C555.159 278.722 559.915 277.926 564.671 276.742C571.999 274.741 578.531 270.986 584.471 266.434C590.615 261.678 596.371 256.514 601.331 250.37C606.679 244.042 611.027 236.898 613.007 228.774C614.987 221.65 616.191 214.71 615.987 207.382ZM592.432 202.32C588.859 201.707 584.981 203.973 583.818 207.362C582.675 210.77 584.369 214.873 587.594 216.506C584.736 222.997 578.98 228.243 571.877 229.202H569.407C566.304 229.202 563.202 228.712 560.385 227.447C557.405 226.12 554.731 224.12 552.689 221.589C555.853 219.997 557.752 216.404 557.058 212.975C556.364 209.546 553.179 206.749 549.648 206.484C549.281 207.994 547.995 209.178 546.525 209.627C545.055 210.076 543.524 209.035 543.259 207.484C542.953 205.606 543.075 203.361 543.443 201.156C544.198 196.502 547.199 192.563 551.403 190.461C554.567 188.868 557.935 187.664 561.426 186.888C563.365 186.439 565.324 186.133 567.304 185.97C570.305 185.684 573.326 185.725 576.326 186.092C580.674 186.623 585.104 187.889 588.431 190.705C591.758 193.543 593.738 198.197 592.452 202.32H592.432Z" fill="black"/>
</svg>
